<?xml version="1.0" encoding="UTF-8" standalone="no"?>
<!-- Created with Inkscape (http://www.inkscape.org/) -->

<svg
   width="79.754738mm"
   height="78.932526mm"
   viewBox="0 0 79.754738 78.932526"
   version="1.1"
   id="svg1"
   inkscape:export-filename="bitmap.svg"
   inkscape:export-xdpi="96"
   inkscape:export-ydpi="96"
   xmlns:inkscape="http://www.inkscape.org/namespaces/inkscape"
   xmlns:sodipodi="http://sodipodi.sourceforge.net/DTD/sodipodi-0.dtd"
   xmlns="http://www.w3.org/2000/svg"
   xmlns:svg="http://www.w3.org/2000/svg">
  <sodipodi:namedview
     id="namedview1"
     pagecolor="#ffffff"
     bordercolor="#000000"
     borderopacity="0.25"
     inkscape:showpageshadow="2"
     inkscape:pageopacity="0.0"
     inkscape:pagecheckerboard="0"
     inkscape:deskcolor="#d1d1d1"
     inkscape:document-units="mm" />
  <defs
     id="defs1" />
  <g
     inkscape:label="Layer 1"
     inkscape:groupmode="layer"
     id="layer1"
     transform="translate(-60.587488,-83.282918)">
    <path
       style="fill:#d4c9c1;fill-opacity:1;stroke:none;stroke-width:0.264583;stroke-opacity:1"
       d="m 96.816636,160.25074 c 0.0834,-2.22657 0.51482,-2.91985 0.88348,-1.4197 l 0.21386,0.87023 0.10263,-0.8599 c 0.0564,-0.47294 0.23073,-0.8599 0.3873,-0.8599 0.18822,0 0.22814,0.47068 0.11783,1.38907 -0.0918,0.76398 -0.16788,1.71648 -0.16915,2.11666 -0.004,1.11705 -0.43776,0.86346 -0.6796,-0.39687 l -0.21577,-1.12448 -0.10149,0.92604 c -0.213,1.94339 -0.61786,1.46187 -0.53909,-0.64115 z m 3.650324,-0.0203 v -1.98437 h 0.77285 0.77284 l 0.0871,1.98499 c 0.064,1.45826 -7.9e-4,1.98483 -0.24368,1.98437 -0.19095,-2.6e-4 -0.33073,-0.33608 -0.33073,-0.79436 0,-0.43657 -0.11906,-0.79375 -0.26458,-0.79375 -0.14552,0 -0.26458,0.35718 -0.26458,0.79375 0,0.43656 -0.11906,0.79375 -0.26459,0.79375 -0.15287,0 -0.26458,-0.83785 -0.26458,-1.98438 z m 1.05833,-0.80936 c 0,-0.35522 -0.11906,-0.64585 -0.26458,-0.64585 -0.14552,0 -0.26458,0.36422 -0.26458,0.80937 0,0.4722 0.11022,0.74125 0.26458,0.64584 0.14552,-0.0899 0.26458,-0.45415 0.26458,-0.80936 z m 2.82067,2.33072 c -0.0665,-0.10914 -0.20467,-0.98508 -0.30697,-1.94652 l -0.18598,-1.74808 0.60185,-0.15739 c 0.7657,-0.20023 1.03918,-0.0268 1.03918,0.65885 0,0.45914 -0.0641,0.49273 -0.40327,0.21127 -0.22179,-0.18408 -0.46513,-0.27282 -0.54074,-0.19721 -0.2707,0.2707 0.2952,2.67617 0.65803,2.79712 0.36508,0.12169 0.35858,0.074 -0.16458,-1.20554 -0.0744,-0.1819 0.0412,-0.33073 0.25689,-0.33073 0.33386,0 0.72284,1.01446 0.72284,1.88515 0,0.2819 -1.50743,0.31162 -1.67725,0.0331 z m -11.551924,-0.24292 c 0,-0.82914 0.64355,-3.55585 0.88505,-3.74999 0.42665,-0.34295 1.58745,0.13234 1.41579,0.57969 -0.0747,0.19453 -0.21988,1.0272 -0.32273,1.85038 -0.11154,0.89276 -0.31635,1.49669 -0.50756,1.49669 -0.20568,0 -0.27881,-0.28446 -0.20407,-0.79375 0.0654,-0.44531 -0.004,-0.79375 -0.15709,-0.79375 -0.15047,0 -0.35204,0.35719 -0.44793,0.79375 -0.1481,0.6743 -0.66146,1.15314 -0.66146,0.61698 z m 1.5875,-2.61697 c 0,-0.35521 -0.10518,-0.64584 -0.23373,-0.64584 -0.25896,0 -0.56097,1.23376 -0.35294,1.44179 0.26613,0.26613 0.58667,-0.16876 0.58667,-0.79595 z m 13.633374,2.19843 c -0.50222,-1.53278 -0.6934,-3.45972 -0.36398,-3.66848 0.48551,-0.30768 1.01811,-0.29175 1.01811,0.0305 0,0.14552 -0.17859,0.26458 -0.39687,0.26458 -0.21828,0 -0.39688,0.10933 -0.39688,0.24294 0,0.5692 0.35126,1.07998 0.74269,1.07998 0.32782,0 0.35092,0.0705 0.10398,0.3175 -0.56601,0.56601 -0.39121,1.53408 0.27781,1.53863 0.4814,0.003 0.51937,0.0531 0.19844,0.26053 -0.54988,0.35537 -1.05444,0.32716 -1.1833,-0.0661 z m -17.709814,-0.15863 c -0.0884,-0.14299 -0.0374,-0.58415 0.1132,-0.98034 0.15064,-0.3962 0.22189,-0.77235 0.15835,-0.8359 -0.0636,-0.0635 -0.19396,0.13157 -0.28982,0.43357 -0.23152,0.72947 -0.6609,0.70091 -0.6948,-0.0462 -0.0216,-0.47587 -0.0824,-0.42278 -0.30285,0.26458 -0.66579,2.07545 -0.8645,1.01605 -0.23304,-1.24242 0.57394,-2.05277 1.087,-2.40789 1.10377,-0.764 l 0.0117,1.14653 0.53959,-1.02299 c 0.82208,-1.55853 1.10478,-0.84346 0.5011,1.2675 -0.56383,1.97158 -0.66541,2.17086 -0.90718,1.77967 z m 20.532694,-2.1091 c -0.80316,-2.49375 -0.63314,-2.99021 0.44665,-1.30415 l 0.55069,0.8599 0.004,-1.12448 c 0.002,-0.61846 0.11873,-1.12448 0.25841,-1.12448 0.22303,0 1.33354,3.10785 1.33354,3.73204 0,0.56939 -0.47672,0.16157 -0.72846,-0.62319 -0.2205,-0.68735 -0.28127,-0.74044 -0.30286,-0.26458 -0.0325,0.71536 -0.24207,0.7535 -0.72699,0.13229 -0.31723,-0.40638 -0.32889,-0.37191 -0.0953,0.28181 0.32153,0.89991 0.33623,1.23955 0.0536,1.23955 -0.11688,0 -0.47407,-0.81212 -0.79375,-1.80471 z m 3.91696,-1.54434 c -0.43929,-0.96885 -0.7679,-1.78616 -0.73023,-1.81625 0.80889,-0.64601 1.63837,-0.61147 0.98585,0.041 -0.35038,0.35038 -0.0481,1.1555 0.43386,1.1555 0.20271,0 0.36856,0.11906 0.36856,0.26458 0,0.14552 -0.1165,0.26458 -0.25891,0.26458 -0.15837,0 -0.14335,0.25362 0.0387,0.65316 0.16368,0.35925 0.39925,0.59034 0.5235,0.51356 0.12424,-0.0768 0.35766,-0.0582 0.51872,0.0414 0.20414,0.12616 0.1841,0.24987 -0.0661,0.40844 -0.72361,0.4585 -1.03155,0.19944 -1.8139,-1.52599 z m -31.224554,0.57993 c 0.13643,-0.35884 0.48842,-1.12358 0.78218,-1.69941 0.39163,-0.76765 0.44723,-1.07804 0.20842,-1.16341 -0.17914,-0.0641 -0.23692,-0.21162 -0.1284,-0.32795 0.24512,-0.26272 1.52248,0.29316 1.52248,0.66255 0,0.14864 -0.15379,0.27025 -0.34176,0.27025 -0.18797,0 -0.66292,0.65485 -1.05546,1.45521 -0.71776,1.46348 -1.47169,2.0764 -0.98746,0.80276 z m 35.024384,-0.44302 c -1.33835,-1.70986 -2.02768,-4.03542 -0.89132,-3.00704 0.57986,0.52477 0.67921,0.3763 0.26549,-0.39674 -0.15662,-0.29263 -0.16666,-0.55668 -0.0245,-0.64452 0.29398,-0.18169 2.21103,3.23039 2.00357,3.56607 -0.0813,0.13148 -0.50688,-0.14436 -0.94582,-0.61298 l -0.79807,-0.85203 0.42802,0.87783 c 0.4613,0.94609 0.43589,1.674 -0.0373,1.06941 z m -38.320664,-0.58606 c -0.33689,-0.24634 -0.42964,-0.51556 -0.29626,-0.8599 0.18361,-0.47399 0.21274,-0.47607 0.53518,-0.0383 0.6116,0.83046 1.18336,0.0452 0.6218,-0.85402 -0.39377,-0.63054 0.17688,-1.85796 0.8638,-1.85796 0.55936,0 1.1517,0.67329 0.92089,1.04675 -0.26645,0.43113 -0.66862,0.32443 -0.66862,-0.1774 0,-0.40997 -0.0395,-0.41409 -0.41072,-0.0429 -0.33813,0.33813 -0.35488,0.5333 -0.0948,1.10419 0.55567,1.21958 -0.48137,2.40332 -1.47131,1.67945 z m 41.034044,-2.68944 c -0.54095,-0.81474 -1.1643,-1.45372 -1.42297,-1.45867 -0.38397,-0.007 -0.35671,-0.0951 0.1643,-0.52916 0.75212,-0.62658 1.21098,-0.67463 0.99197,-0.10388 -0.0913,0.2378 0.16105,0.89048 0.58812,1.52135 1.08091,1.59673 1.13594,1.71449 0.87622,1.875 -0.12924,0.0799 -0.66818,-0.50721 -1.19764,-1.30464 z m -43.917134,0.79191 c -0.46239,-0.33811 -0.42848,-0.44259 0.63657,-1.96092 1.24833,-1.77961 1.14983,-1.70966 1.86686,-1.32591 0.55849,0.29889 0.45082,0.84485 -0.12317,0.62459 -0.19031,-0.073 -0.51392,0.0706 -0.71913,0.31916 -0.29022,0.35153 -0.29927,0.4768 -0.0408,0.56381 0.18281,0.0615 0.2683,0.21555 0.18997,0.34229 -0.0783,0.12674 -0.30806,0.16686 -0.51053,0.0892 -0.48502,-0.18612 -1.01636,0.77379 -0.63783,1.15231 0.43148,0.43148 -0.11753,0.59362 -0.66199,0.1955 z m -2.68192,-1.97909 c -0.0827,-0.13386 0.0921,-0.48585 0.3884,-0.7822 0.62369,-0.62369 0.66968,-0.8034 0.20559,-0.8034 -0.18328,0 -0.48194,0.23813 -0.6637,0.52917 -0.34784,0.55697 -0.85516,0.7139 -0.85516,0.26452 0,-0.14556 0.64663,-0.90612 1.43694,-1.69015 l 1.43694,-1.4255 0.58095,0.6184 0.58096,0.6184 -1.09185,1.11385 c -0.60052,0.61262 -1.09185,1.20123 -1.09185,1.30803 0,0.3114 -0.76214,0.51597 -0.92722,0.24888 z m 1.93263,-2.16768 c 0.5863,-0.5863 0.38937,-1.15247 -0.21166,-0.60854 -0.54356,0.49191 -0.6924,0.92604 -0.3175,0.92604 0.11641,0 0.35454,-0.14288 0.52916,-0.3175 z m 48.867394,-0.0687 c -0.79034,-0.84923 -1.36525,-1.66012 -1.27758,-1.80197 0.0877,-0.14186 0.73574,0.36899 1.44016,1.1352 1.04452,1.13615 1.35083,1.33498 1.6606,1.0779 0.60345,-0.50082 0.74141,0.11246 0.14643,0.65092 l -0.53262,0.482 z m -29.966914,0.80086 c -7.43345,-1.4137 -13.58646,-5.05039 -18.06035,-10.67443 -0.89402,-1.12386 -1.86736,-2.34103 -2.16298,-2.70483 -3.66147,-4.50593 -5.508849,-15.76918 -3.68872,-22.48958 0.7134,-2.63406 2.09915,-6.08542 2.44335,-6.08542 0.32687,0 0.34079,-0.0529 -0.56346,2.13996 -3.176131,7.70218 -2.36315,20.7849 1.55397,25.00696 0.25618,0.27612 0.97139,1.24759 1.58936,2.15882 11.48602,16.93677 37.143544,16.47829 48.235414,-0.86193 0.83815,-1.31029 1.64695,-2.52473 1.79734,-2.69875 2.45315,-2.83856 3.69773,-14.00038 2.18225,-19.57128 -0.65905,-2.42266 -1.92011,-5.64461 -2.20928,-5.64461 -0.12253,0 -0.22278,-0.11907 -0.22278,-0.26459 0,-0.91094 0.85845,0.01 1.54154,1.65365 3.15657,7.5956 2.58093,19.89616 -1.15546,24.69051 -0.21905,0.28108 -1.01276,1.45676 -1.76381,2.61264 -6.08203,9.36038 -18.67808,14.79411 -29.516384,12.73288 z m -24.08631,-1.52593 c -0.51389,-0.5139 -0.3822,-0.83174 0.84273,-2.03392 1.20297,-1.18063 1.86178,-1.31883 2.37814,-0.49887 0.61176,0.97145 -2.40776,3.3459 -3.22087,2.53279 z m 1.72043,-1.05732 c 0.81831,-0.79314 1.13819,-1.5356 0.6616,-1.5356 -0.36442,0 -2.19025,2.00859 -1.99935,2.19948 0.29109,0.2911 0.41683,0.2287 1.33775,-0.66388 z m 22.47711,0.70528 c -8.40272,-1.58912 -15.8507,-6.9914 -19.48138,-14.13054 -0.32838,-0.64572 -0.75145,-1.32842 -0.94014,-1.51711 -1.82971,-1.82971 -3.05453,-11.19652 -2.10977,-16.13437 0.7168,-3.74635 2.3402,-7.76269 2.90812,-7.19476 0.17373,0.17372 -0.46367,1.81091 -0.70503,1.81091 -0.2806,0 -1.47862,3.91998 -1.79629,5.87753 -0.72325,4.45684 0.38065,13.4351 1.78062,14.48223 0.10695,0.08 0.47421,0.74076 0.81614,1.46836 2.11422,4.49897 5.95194,8.63273 10.62311,11.44255 4.8954,2.9447 12.86433,4.75734 10.78177,2.45245 -0.19047,-0.2108 -0.0138,-0.16906 0.41666,0.0984 l 0.74739,0.46447 0.14336,-0.54823 c 0.0788,-0.30152 0.26348,-0.54823 0.41027,-0.54823 0.16787,0 0.22299,-0.83678 0.14855,-2.25505 -0.15064,-2.87002 -0.65522,-3.68993 -2.28595,-3.71449 -0.59971,-0.009 -1.18221,-0.11508 -1.29445,-0.23566 -0.11223,-0.12058 0.11606,-0.14252 0.50733,-0.0488 0.39126,0.0938 0.7859,0.0499 0.87697,-0.0974 0.23716,-0.38373 -0.10981,-1.32152 -0.48894,-1.32152 -0.17607,0 -0.63355,-0.35718 -1.01663,-0.79375 -0.44482,-0.50693 -0.94979,-0.79375 -1.39745,-0.79375 -0.38552,0 -0.63017,-0.11451 -0.54367,-0.25447 0.0972,-0.15736 0.39753,-0.16313 0.78685,-0.0151 0.47837,0.18188 0.66697,0.14194 0.78525,-0.16628 0.21746,-0.56671 -0.0414,-0.88635 -0.72157,-0.8911 -0.40091,-0.003 -0.47494,-0.0705 -0.24001,-0.2196 0.19482,-0.12361 0.26895,-0.43219 0.17381,-0.72355 -0.12826,-0.39279 -0.0416,-0.35799 0.38203,0.15345 0.56767,0.68531 0.75978,0.3391 0.29438,-0.53051 -0.17734,-0.33137 -0.17734,-0.55007 0,-0.65968 0.14591,-0.0902 0.2653,0.0812 0.2653,0.38082 0,0.29963 0.11906,0.54478 0.26458,0.54478 0.14552,0 0.26458,-0.1389 0.26458,-0.30868 0,-0.16977 0.0692,-0.2395 0.15373,-0.15495 0.0845,0.0846 0.0223,0.39933 -0.13836,0.69951 -0.39979,0.74701 0.29094,2.47887 0.89605,2.24667 0.22633,-0.0868 0.4115,-0.32377 0.4115,-0.52648 0,-0.20271 0.12609,-0.36857 0.2802,-0.36857 0.15411,0 0.20914,0.11498 0.12229,0.25551 -0.19115,0.30928 0.71791,2.15746 1.29796,2.63886 0.98998,0.82161 0.3937,-1.57892 -0.6779,-2.72915 -0.27136,-0.29127 -0.49338,-0.64895 -0.49338,-0.79484 0,-0.1459 0.17481,-0.0342 0.38846,0.24832 l 0.38846,0.51359 0.0432,-0.66145 c 0.0343,-0.52533 0.0769,-0.4752 0.20686,0.24355 0.24908,1.37784 0.82119,1.3622 0.84366,-0.0231 0.0239,-1.47276 0.24084,-1.926 0.957604,-2.00047 l 0.57933,-0.0602 -0.34726,0.85394 c -0.61512,1.51267 -0.67771,3.28674 -0.13333,3.77939 0.68837,0.62296 1.41128,-2.11571 0.93463,-3.5407 -0.27245,-0.81449 0.016,-1.06412 0.48971,-0.42376 0.2593,0.35054 0.32848,0.87139 0.22142,1.66692 l -0.15572,1.15707 0.76803,-0.47831 c 0.42242,-0.26308 1.02834,-0.70809 1.3465,-0.98893 l 0.57846,-0.51061 -0.13677,0.52302 c -0.0921,0.35205 0.0216,0.575 0.34757,0.68202 0.2664,0.0875 0.74506,0.35172 1.0637,0.58727 0.54234,0.40092 0.60948,0.39309 1.05099,-0.12255 0.47439,-0.55405 1.05418,-0.77695 0.75289,-0.28945 -0.10009,0.16195 0.27144,0.22391 0.97657,0.16287 0.82552,-0.0715 0.92011,-0.0501 0.34437,0.0778 -0.43656,0.097 -0.76228,0.32644 -0.72383,0.50992 0.0525,0.25048 -0.0581,0.26509 -0.44385,0.0586 -0.92336,-0.49417 -1.67082,0.0666 -1.01513,0.76161 0.1819,0.1928 -0.24394,-0.081 -0.94631,-0.60855 -1.61537,-1.21319 -2.3285,-1.22654 -3.21809,-0.0602 -0.62973,0.82563 -1.30748,2.51485 -1.09447,2.72786 0.20706,0.20706 0.95939,-0.27312 0.95939,-0.61232 0,-0.77582 0.88268,-1.33186 1.57016,-0.98911 l 0.63369,0.31593 -0.90349,0.0862 c -0.69108,0.0659 -0.92265,0.22068 -0.985,0.65836 -0.0751,0.52692 0.009,0.56189 1.05833,0.44194 0.85209,-0.0974 1.03966,-0.0592 0.74298,0.15136 -0.21828,0.15488 -0.87313,0.28525 -1.45521,0.28971 -1.60726,0.0123 -1.67752,0.13362 -1.87858,3.24353 l -0.18299,2.83038 0.63391,0.23987 c 0.38555,0.14589 0.75477,0.14268 0.94239,-0.008 0.21054,-0.16929 0.3632,-0.0756 0.48085,0.29505 0.21528,0.67831 0.73279,0.6827 3.444,0.0292 8.60301,-2.07364 16.04433,-8.73151 18.94298,-16.9486 0.33367,-0.94588 0.69253,-1.78011 0.79746,-1.85385 1.21866,-0.8563 1.22598,-13.65395 0.008,-14.54855 -0.30001,-0.22042 -1.94794,-4.7939 -1.78578,-4.95606 0.16293,-0.16293 1.4771,2.511 1.48131,3.01402 0.001,0.16977 0.11917,0.34836 0.26166,0.39687 0.1425,0.0485 0.52202,1.0407 0.8434,2.20486 1.13924,4.12691 0.54724,14.96064 -0.8434,15.43403 -0.14249,0.0485 -0.25907,0.2334 -0.25907,0.41087 0,0.55333 -2.04871,4.58978 -3.1384,6.18341 -5.98403,8.75141 -17.35979,13.51072 -27.644484,11.5657 z m 5.250644,-4.93788 c 0.15256,-1.15087 0.12388,-1.34427 -0.15906,-1.07258 -0.19931,0.1914 -0.37642,1.08588 -0.41911,2.11667 -0.0835,2.01519 0.25323,1.40718 0.57817,-1.04409 z m 0.12286,-2.56091 c -0.005,-0.23685 -0.17953,-0.72828 -0.3875,-1.09208 l -0.37812,-0.66146 -0.009,1.42145 c -0.008,1.23407 0.0429,1.37804 0.3875,1.09208 0.21828,-0.18115 0.39266,-0.52315 0.3875,-0.75999 z m -1.842714,-0.43063 c 0,-0.21828 -0.19317,-0.39687 -0.42927,-0.39687 -0.35157,0 -0.36965,0.0718 -0.0999,0.39687 0.18116,0.21828 0.37433,0.39688 0.42927,0.39688 0.0549,0 0.0999,-0.1786 0.0999,-0.39688 z m -0.79375,-1.02602 c 0,-0.39743 -0.85261,-2.01668 -1.06188,-2.01668 -0.39731,0 -0.31162,0.86836 0.15084,1.52862 0.3527,0.50354 0.91104,0.80266 0.91104,0.48806 z m -2.26365,-2.13428 c -0.24962,-0.38097 -0.51339,-0.63314 -0.58615,-0.56038 -0.0728,0.0728 0.0719,0.444 0.32156,0.82497 0.24962,0.38097 0.51339,0.63314 0.58615,0.56038 0.0728,-0.0728 -0.0719,-0.444 -0.32156,-0.82497 z m 31.703124,9.87155 c -0.99995,-0.88085 -1.51935,-1.5156 -1.36864,-1.67259 0.15177,-0.15809 0.73368,0.23039 1.55105,1.03547 1.11212,1.0954 1.36958,1.23749 1.71813,0.94821 0.50116,-0.41592 0.5388,-0.0236 0.0605,0.63053 -0.3247,0.44405 -0.46385,0.37724 -1.96104,-0.94162 z M 68.716956,146.8904 c 0,-0.71734 3.02618,-2.64452 3.49143,-2.22347 0.25567,0.23137 0.39468,0.5342 0.30893,0.67295 -0.0967,0.1565 -0.26041,0.14778 -0.43117,-0.023 -0.46839,-0.46839 -1.22948,0.12643 -1.05048,0.821 0.13214,0.51278 0.0961,0.55108 -0.25105,0.26669 -0.332295,-0.27223 -0.526909,-0.23647 -1.079801,0.19844 -0.742296,0.58388 -0.987859,0.65531 -0.987859,0.28736 z m 61.142514,-0.82134 c -0.74067,-0.58547 -1.34668,-1.22573 -1.34668,-1.42281 0,-0.52916 0.66342,-0.98569 1.15709,-0.79625 0.62711,0.24064 0.52641,0.63611 -0.1649,0.64765 -0.53099,0.009 -0.48096,0.10849 0.46302,0.9221 1.11253,0.95888 1.80813,1.19353 1.55089,0.52317 -0.0838,-0.21828 -0.0167,-0.39687 0.1489,-0.39687 0.46694,0 0.64534,0.75594 0.28179,1.19399 -0.46277,0.55761 -0.58579,0.51812 -2.09011,-0.67098 z M 66.252037,142.96637 C 53.212516,121.30319 63.636771,93.413012 87.774816,85.382014 116.37992,75.86478 144.87939,100.12575 139.73672,129.61602 c -0.73954,4.2408 -4.13707,12.91746 -5.50154,14.04987 -0.76921,0.63838 -1.01927,-0.15261 -0.37741,-1.19381 21.95162,-35.60915 -23.12113,-75.709919 -56.702204,-50.447374 -1.02241,0.76914 -1.95553,1.398437 -2.07361,1.398437 -0.11809,0 -1.34199,1.174475 -2.71979,2.609945 -12.203629,12.714452 -14.288381,31.575562 -5.157737,46.662962 0.69738,1.15234 0.766304,1.79167 0.193153,1.79167 -0.126396,0 -0.641892,-0.6846 -1.145545,-1.52135 z m 30.552529,-5.88697 c 0,-0.36381 0.0601,-0.51263 0.13345,-0.33073 0.0734,0.1819 0.0734,0.47955 0,0.66145 -0.0734,0.18191 -0.13345,0.0331 -0.13345,-0.33072 z m 0.0864,-1.23709 c -0.39577,-0.91796 -0.34351,-1.14645 0.29909,-1.30773 0.53333,-0.13386 0.58914,-0.2296 0.32167,-0.55188 -0.26035,-0.3137 -0.24881,-0.3792 0.059,-0.33506 0.78119,0.11202 1.335,-0.0158 1.17689,-0.27161 -0.10835,-0.17532 0.0696,-0.17532 0.53078,0 0.901044,0.34258 0.935254,0.33655 0.755044,-0.13309 -0.0838,-0.21828 -0.0205,-0.39688 0.14059,-0.39688 0.16109,0 0.29289,-0.17859 0.29289,-0.39687 0,-0.21828 0.14134,-0.39688 0.31409,-0.39688 0.17274,0 0.01,-0.32742 -0.36263,-0.7276 -0.37219,-0.40018 -0.886844,-1.05874 -1.143674,-1.46347 -0.25684,-0.40472 -0.53168,-0.67115 -0.61077,-0.59206 -0.0791,0.0791 0.12611,0.50889 0.45601,0.9551 0.3299,0.44621 0.52087,0.89024 0.42438,0.98673 -0.0965,0.0965 -0.27751,-0.002 -0.40227,-0.21923 -0.12476,-0.21707 -0.53255,-0.80476 -0.9062,-1.30597 -0.74901,-1.00474 -0.90245,-1.58761 -0.28248,-1.07308 0.54981,0.4563 0.49431,0.0308 -0.12939,-0.99219 -0.61051,-1.0013 -0.89454,-1.11104 -0.68481,-0.26458 0.0904,0.36471 0.004,0.28784 -0.22203,-0.19844 -0.65297,-1.40257 -0.79047,-3.95019 -0.25956,-4.80902 l 0.46192,-0.74723 -0.57474,0.536 c -1.40274,1.3082 -0.731,5.01281 1.42239,7.84434 1.07487,1.41336 1.30821,2.33529 0.59106,2.33529 -0.14552,0 -0.20366,-0.15875 -0.12921,-0.35278 0.15963,-0.41599 -0.5853,-0.49106 -1.07094,-0.10793 -0.22312,0.17602 -0.33073,0.16429 -0.33073,-0.0361 0,-0.16334 -0.12325,-0.29698 -0.27389,-0.29698 -0.18198,0 -0.18818,0.16017 -0.0185,0.47728 0.56919,1.06354 -0.173,1.29592 -1.01075,0.31647 -0.43563,-0.50932 -0.7969,-0.79797 -0.80281,-0.64143 -0.006,0.15653 0.2869,0.56424 0.6507,0.90601 0.79887,0.7505 0.89664,1.35273 0.10331,0.63632 -1.49658,-1.35147 -3.41059,-4.92711 -3.41059,-6.37147 0,-0.61203 -0.1378,-1.19795 -0.30621,-1.30203 -0.30915,-0.19107 -0.20217,1.34349 0.20742,2.97543 0.12384,0.49343 0.0862,0.6456 -0.12721,0.51373 -0.16674,-0.10306 -0.30317,-0.41847 -0.30317,-0.70092 0,-0.28246 -0.13295,-0.51356 -0.29544,-0.51356 -0.28559,0 -0.2365,0.42246 0.16144,1.38907 0.10484,0.25466 0.0779,0.46302 -0.0599,0.46302 -0.31705,0 -0.83575,-1.65866 -0.95151,-3.04271 -0.0767,-0.91646 -0.0945,-0.87444 -0.133,0.3135 -0.0245,0.75452 0.0716,1.67725 0.21356,2.05052 0.14192,0.37328 0.16584,0.67869 0.0532,0.67869 -0.28863,0 -0.90583,-1.79668 -0.72031,-2.09684 0.0842,-0.13632 0.0322,-0.32263 -0.11573,-0.41404 -0.14789,-0.0914 -0.27726,-0.0104 -0.28749,0.18016 -0.0102,0.19049 -0.11437,0.10822 -0.23143,-0.18282 -0.11706,-0.29105 -0.14941,-0.93608 -0.0719,-1.43342 0.12248,-0.78574 0.0793,-0.88058 -0.32962,-0.72367 -0.48747,0.18706 -0.48649,-0.0589 0.005,-1.25975 0.12946,-0.31629 0.1086,-0.44545 -0.0555,-0.344 -0.22401,0.13845 -0.47059,0.79431 -1.05394,2.80335 -0.0776,0.2674 -0.24827,0.20152 -0.63603,-0.24558 -0.36083,-0.41604 -0.44366,-0.69728 -0.25957,-0.88137 0.43012,-0.43012 0.33402,-1.23068 -0.12652,-1.05395 -0.21828,0.0838 -0.39687,0.0205 -0.39687,-0.1406 0,-0.16109 0.23393,-0.29289 0.51985,-0.29289 0.28593,0 0.65276,-0.24832 0.81519,-0.55183 0.16243,-0.3035 0.35399,-0.49316 0.42569,-0.42146 0.0717,0.0717 -0.057,0.4927 -0.28602,0.93556 -0.22901,0.44286 -0.40991,1.07901 -0.40199,1.41365 0.0102,0.43114 0.14959,0.26148 0.47831,-0.58217 0.3717,-0.95394 0.57923,-1.1781 1.04395,-1.1276 0.31901,0.0347 0.58002,-0.0437 0.58002,-0.17418 0,-0.13047 0.54232,-0.90297 1.20516,-1.71667 0.66284,-0.81371 1.10183,-1.47947 0.97554,-1.47947 -0.32444,0 -1.47608,1.31799 -1.90731,2.18282 -0.19955,0.40018 -0.52403,0.7276 -0.72108,0.7276 -0.43667,0 0.16686,-1.03919 1.29508,-2.22994 0.40372,-0.4261 0.67451,-0.83426 0.60175,-0.90702 -0.17189,-0.17189 -1.54202,1.24399 -1.94745,2.01248 -0.17273,0.32742 -0.44263,0.59531 -0.59977,0.59531 -0.48193,0 0.53653,-1.36921 2.21406,-2.97656 0.87327,-0.83674 1.49675,-1.52135 1.38551,-1.52135 -0.11124,0 0.0132,-0.23813 0.27663,-0.52917 l 0.47889,-0.52917 -0.50403,-0.004 c -0.42845,-0.003 -0.44451,-0.0461 -0.10715,-0.28438 0.29332,-0.20718 0.12074,-0.23564 -0.66146,-0.10908 l -1.05833,0.17125 0.52916,-0.43764 c 0.43936,-0.36335 0.45058,-0.41292 0.0662,-0.29204 -0.58676,0.18449 -0.61268,-0.25293 -0.0283,-0.47718 0.23911,-0.0918 0.36837,-0.23321 0.28725,-0.31433 -0.0811,-0.0811 -0.3724,-0.0271 -0.64727,0.11997 -0.39145,0.20949 -0.56889,0.15679 -0.81866,-0.24315 -0.17539,-0.28084 -0.49647,-0.51062 -0.71352,-0.51062 -0.21705,0 -0.39464,-0.11906 -0.39464,-0.26458 0,-0.14552 0.2679,-0.26641 0.59532,-0.26864 0.32742,-0.002 0.7739,-0.1257 0.99218,-0.27439 0.28437,-0.19371 0.0969,-0.22012 -0.66145,-0.0931 -0.58209,0.0975 -1.10284,0.21583 -1.15724,0.26305 -0.0544,0.0472 -0.39387,-0.34881 -0.75439,-0.88007 l -0.65549,-0.96592 0.47769,-0.80868 c 0.26274,-0.44477 0.48315,-0.8682 0.48981,-0.94096 0.007,-0.0728 0.23041,-0.10217 0.49721,-0.0653 0.26681,0.0368 0.68353,-0.0489 0.92605,-0.19039 0.37635,-0.21964 0.35051,-0.25851 -0.17642,-0.26538 -0.69117,-0.009 -0.66559,-0.66734 0.0261,-0.67287 0.23186,-0.002 0.50935,-0.0911 0.61663,-0.19844 0.10729,-0.10729 0.53241,-0.19506 0.94472,-0.19506 0.45155,0 0.72335,-0.12902 0.6835,-0.32445 -0.0364,-0.17845 0.20351,-0.36555 0.5331,-0.41579 0.32958,-0.0502 0.52714,-0.208 0.43902,-0.35058 -0.16239,-0.26277 1.05139,-1.55502 1.46061,-1.55502 0.12246,0 0.29118,-0.17859 0.37495,-0.39687 0.0838,-0.21828 0.33462,-0.39688 0.55747,-0.39688 0.22285,0 0.40518,0.1786 0.40518,0.39688 0,0.21828 -0.12609,0.39687 -0.2802,0.39687 -0.15411,0 -0.21496,0.10557 -0.13521,0.23459 0.24429,0.39527 2.05881,0.63224 2.26661,0.29601 0.23343,-0.3777 1.90022,0.008 2.05615,0.47584 0.0798,0.23927 -0.0668,0.25464 -0.57731,0.0605 -0.37632,-0.14307 -0.68421,-0.15672 -0.68421,-0.0303 0,0.1264 1.32845,0.54682 2.952104,0.93426 1.62366,0.38744 3.28378,0.87595 3.68915,1.08558 0.40538,0.20963 0.79536,0.28681 0.86662,0.17151 0.12167,-0.19688 -2.77773,-1.26104 -3.93599,-1.44462 -0.30981,-0.0491 -0.51394,-0.27161 -0.49242,-0.53675 0.0225,-0.2778 -0.15287,-0.45288 -0.45372,-0.45288 -0.55152,0 -1.155594,-0.91899 -0.888324,-1.35144 0.0959,-0.15519 0.401174,-0.22286 0.678354,-0.15038 0.27717,0.0725 0.66264,-0.0269 0.85659,-0.22084 0.45689,-0.45689 1.3745,-0.61524 1.30137,-0.22457 -0.0675,0.36047 1.19797,0.65328 1.40132,0.32424 0.1957,-0.31664 0.90412,-0.28884 0.90412,0.0355 0,0.14552 -0.20241,0.26459 -0.44979,0.26459 -0.76765,0 -0.0178,0.45239 1.07114,0.64624 0.69257,0.12328 0.9626,0.0912 0.84429,-0.1002 -0.0957,-0.1548 -0.41208,-0.28146 -0.70312,-0.28146 -0.29104,0 -0.46022,-0.11157 -0.37594,-0.24793 0.19364,-0.31331 2.21692,-0.2992 2.41223,0.0168 0.0801,0.12957 -0.12994,0.34609 -0.46671,0.48116 -0.33677,0.13506 -0.48624,0.25312 -0.33215,0.26234 0.15409,0.009 0.51127,0.19861 0.79375,0.42086 0.374,0.29425 0.40572,0.39361 0.11671,0.36553 -0.87899,-0.0854 -1.85208,0.0361 -1.85208,0.23131 0,0.11394 0.32742,0.19072 0.72761,0.17062 0.40018,-0.0201 0.96245,0.12479 1.24949,0.32199 0.28704,0.1972 0.75734,0.35855 1.04511,0.35855 0.37467,0 0.44208,0.0811 0.23743,0.28578 -0.20293,0.20292 -0.57922,0.20475 -1.29797,0.006 -0.72056,-0.19896 -1.06322,-0.19691 -1.18931,0.007 -0.0974,0.15762 -0.45988,0.21537 -0.80547,0.12832 -0.34559,-0.0871 -0.17448,0.0621 0.38024,0.33139 0.55472,0.26931 1.00121,0.56592 0.99219,0.65912 -0.0536,0.55404 0.0251,0.69864 0.38047,0.69864 0.26024,0 0.39688,-0.26045 0.39688,-0.7565 v -0.7565 l 1.31706,0.42936 c 0.72438,0.23615 1.52805,0.65288 1.78593,0.92606 0.26584,0.2816 0.30619,0.40448 0.0932,0.28373 -0.27214,-0.15426 -0.33251,-0.10045 -0.21905,0.19524 0.28232,0.73572 -1.76766,0.79698 -3.34576,0.1 -1.54084,-0.68055 -3.07656,-1.11166 -2.67408,-0.75068 0.14552,0.13051 0.7706,0.39612 1.38906,0.59024 1.12751,0.35389 1.312,0.62098 0.88949,1.28774 -0.18301,0.28882 -0.34848,0.29564 -0.85584,0.0352 -0.55363,-0.28414 -0.58142,-0.27643 -0.23209,0.0644 0.21829,0.21295 1.2597,0.73287 2.31425,1.15539 1.3558,0.54321 1.91762,0.90382 1.91823,1.23123 10e-4,0.55558 -0.27106,0.5769 -1.3967,0.10946 -1.20539,-0.50056 -2.55515,-0.79952 -2.04203,-0.45228 0.35278,0.23873 0.35278,0.27006 0,0.282 -0.24019,0.008 -0.13573,0.1627 0.26459,0.39155 0.76515,0.4374 0.35748,0.51969 -0.65936,0.13309 -0.53252,-0.20247 -0.65497,-0.18709 -0.52677,0.0661 0.0919,0.18146 0.009,0.14433 -0.18331,-0.0825 -0.45228,-0.53243 -2.15766,-0.57309 -3.22451,-0.0769 -0.80691,0.3753 -0.2365,0.34383 0.69134,-0.0381 0.27692,-0.114 0.46302,-0.0729 0.46302,0.10227 0,0.1611 -0.20835,0.3023 -0.46302,0.31378 -0.25466,0.0115 0.0437,0.20025 0.66311,0.41948 0.61937,0.21922 1.06813,0.49243 0.99724,0.60713 -0.12886,0.20849 3.5964,1.65531 3.78261,1.4691 0.0542,-0.0542 -0.51197,-0.36116 -1.25813,-0.68215 -0.74616,-0.32099 -1.3034,-0.63688 -1.2383,-0.70197 0.0651,-0.0651 0.67916,0.12972 1.3646,0.43292 1.49671,0.66207 1.41204,0.65554 1.33089,0.10259 -0.0362,-0.24677 -0.23405,-0.49396 -0.43961,-0.54931 -0.29218,-0.0787 -0.28714,-0.0394 0.0231,0.18005 0.65867,0.46581 -0.14411,0.33678 -1.38198,-0.22214 -0.62236,-0.281 -1.60781,-0.70201 -2.18989,-0.93558 -0.73424,-0.29462 -0.81527,-0.36715 -0.26459,-0.23683 0.43657,0.10331 1.50813,0.19982 2.38125,0.21446 0.87313,0.0146 1.73633,0.12003 1.91823,0.23419 0.1819,0.11416 0.33073,0.0954 0.33073,-0.0417 0,-0.29509 1.45815,-0.26412 1.75965,0.0374 0.11473,0.11474 -0.0259,0.12526 -0.3125,0.0234 -0.42781,-0.15205 -0.46189,-0.1214 -0.19038,0.17123 0.53072,0.57197 0.38055,0.90687 -0.17941,0.40011 -0.36807,-0.3331 -0.63596,-0.39127 -0.96189,-0.20887 -0.37046,0.20732 -0.21918,0.33454 0.84088,0.70711 1.93323,0.67946 3.62361,1.47507 3.46691,1.63177 -0.0763,0.0763 -0.63798,-0.11609 -1.24827,-0.42743 -0.61028,-0.31135 -1.1727,-0.503 -1.24981,-0.42589 -0.0771,0.0771 -0.47637,-0.0336 -0.88726,-0.24612 -0.92423,-0.47794 -0.94973,-0.47766 -0.94973,0.0106 0,0.21828 0.17057,0.39687 0.37904,0.39687 0.32811,0 1.21106,0.48168 4.282,2.33594 l 0.64818,0.39139 -0.62038,0.22949 c -0.34122,0.12623 -0.85617,0.15467 -1.14435,0.0632 -0.37051,-0.11759 -0.4658,-0.0722 -0.32539,0.15498 0.26054,0.42157 -0.88626,0.088 -1.47786,-0.42981 -0.23074,-0.20197 -1.16746,-0.72952 -2.0816,-1.17234 -0.91415,-0.44282 -1.60395,-0.86326 -1.5329,-0.93431 0.1836,-0.1836 1.42412,0.38668 3.04697,1.40071 1.41787,0.88596 1.91309,1.05238 1.91309,0.64291 0,-0.25371 -2.54887,-1.55267 -4.70614,-2.39836 -1.50452,-0.5898 -2.01545,-0.69493 -1.37927,-0.2838 0.67845,0.43845 -0.15726,0.29917 -1.5875,-0.26458 -1.4246,-0.56153 -2.24221,-0.68177 -2.00291,-0.29457 0.34931,0.5652 -0.66406,0.88969 -2.2264,0.71293 -1.468234,-0.16611 -2.948464,0.16498 -2.544344,0.5691 0.083,0.083 -0.0557,0.30254 -0.30807,0.48796 -0.41939,0.3081 -0.39477,0.36161 0.28592,0.62148 0.90967,0.34728 1.5302,0.37657 1.01117,0.0477 -0.3045,-0.19292 -0.3045,-0.25361 0,-0.38971 0.19837,-0.0887 -0.0263,-0.0936 -0.49923,-0.011 -0.47294,0.0826 -0.85989,0.0846 -0.85989,0.004 0,-0.0802 0.38695,-0.25748 0.85989,-0.39404 0.78314,-0.22612 0.80086,-0.25277 0.19844,-0.29852 l -0.66146,-0.0502 0.66146,-0.19383 c 0.78937,-0.23131 1.322924,-0.084 1.322924,0.36522 0,0.2109 0.48663,0.34382 1.37367,0.37522 0.75552,0.0267 1.44013,0.11611 1.52135,0.1986 0.0812,0.0825 -0.65106,0.10927 -1.62731,0.0595 l -1.774984,-0.0905 0.15737,0.62458 c 0.14099,0.55956 0.0916,0.60398 -0.47397,0.42671 -1.32353,-0.41479 -1.40646,-0.41421 -0.76363,0.005 l 0.66146,0.43174 -0.59568,-0.1242 c -0.32762,-0.0683 -0.53399,-0.0244 -0.4586,0.0976 0.0754,0.12199 -0.12952,0.40854 -0.45538,0.63678 -0.32585,0.22824 -0.45393,0.41498 -0.28462,0.41498 0.16931,0 0.38337,-0.12222 0.4757,-0.2716 0.0923,-0.14938 0.3077,-0.24346 0.47863,-0.20907 0.17093,0.0344 0.57004,-0.0811 0.88693,-0.25662 0.31687,-0.17553 0.755844,-0.25019 0.975484,-0.16591 0.56871,0.21824 0.22135,0.90398 -0.455464,0.89915 -0.46306,-0.003 -0.49425,-0.0511 -0.17013,-0.26052 0.342034,-0.22103 0.335044,-0.25704 -0.0505,-0.26053 -0.55651,-0.005 -0.86469,0.43859 -0.41414,0.59615 0.24489,0.0856 0.2105,0.25377 -0.13064,0.63874 -0.58936,0.66509 -0.63723,3.19209 -0.0746,3.93601 0.21365,0.28247 0.39224,0.71492 0.39687,0.96099 0.005,0.24608 0.14771,0.5335 0.31796,0.63872 0.21002,0.1298 0.25353,0.0453 0.13533,-0.26271 -0.10349,-0.26968 -0.068,-0.38839 0.0873,-0.29237 0.143864,0.0889 0.261564,0.0415 0.261564,-0.10541 0,-0.14687 -0.17794,-0.36663 -0.395434,-0.48834 -1.08167,-0.60533 -0.92541,-4.83208 0.17865,-4.83208 0.171304,0 0.111954,0.20645 -0.13909,0.48385 -2.49796,2.76021 4.239304,9.90554 9.941664,10.5438 1.76772,0.19786 2.52146,0.5611 1.16432,0.5611 -0.54769,0 -1.06724,0.0714 -1.15456,0.15875 -0.0873,0.0873 0.15875,0.15875 0.54681,0.15875 0.77466,0 0.9063,0.29776 0.33958,0.7681 -0.28222,0.23422 -0.40143,0.21136 -0.52086,-0.0999 -0.0852,-0.22199 -0.46309,-0.40363 -0.83978,-0.40363 -0.88876,0 -3.09616,-0.5356 -3.41953,-0.82972 -0.13825,-0.12573 -0.46567,-0.22861 -0.72761,-0.22861 -0.26193,0 -0.47625,-0.11906 -0.47625,-0.26458 0,-0.32543 0.3185,-0.33512 1.11203,-0.0338 1.39755,0.53059 2.64007,0.86785 2.75905,0.74887 0.18108,-0.18108 -3.05743,-1.2442 -3.79016,-1.2442 -0.33555,0 -0.61008,0.12212 -0.61008,0.27138 0,0.74207 -2.3516,-1.13039 -3.89446,-3.10095 -1.877974,-2.39859 -2.804614,-5.85676 -1.794084,-6.69543 0.45837,-0.38041 0.51852,-0.95192 0.12573,-1.19468 -0.14912,-0.0922 -0.24607,-0.0694 -0.21543,0.0505 0.0306,0.11996 -0.15446,0.69436 -0.41134,1.27644 -0.58126,1.31714 -0.43699,3.06782 0.33935,4.11787 0.70313,0.95103 0.73045,1.67317 0.0294,0.77692 -0.28457,-0.3638 -0.52004,-0.52721 -0.52328,-0.36312 -0.003,0.16408 0.17271,0.44655 0.39099,0.62771 0.21828,0.18115 0.39688,0.44644 0.39688,0.58951 0,0.14308 0.2966,0.63451 0.65912,1.09208 0.36252,0.45757 0.868544,1.10188 1.124484,1.43181 0.25595,0.32992 0.76301,0.79551 1.12681,1.03465 0.3845,0.25274 0.14709,-0.11949 -0.56701,-0.889 -0.67565,-0.72808 -1.425564,-1.72945 -1.666464,-2.22527 l -0.438,-0.90149 0.60211,0.79375 c 1.240424,1.63523 3.180414,3.52951 3.934634,3.84192 0.9164,0.37958 1.04713,0.8017 0.18526,0.59816 l -0.59532,-0.14059 0.52917,0.42153 c 0.29104,0.23184 0.76729,0.42349 1.05833,0.42589 0.39655,0.003 0.43921,-0.0526 0.17019,-0.2231 -0.6579,-0.41687 0.17584,-0.60173 0.93051,-0.20632 l 0.71637,0.37535 -0.58886,0.1869 c -0.43097,0.13678 -0.54565,0.32306 -0.42768,0.69472 0.34279,1.08004 -0.10165,1.63208 -1.15489,1.43448 -1.25039,-0.23457 -1.5042,-0.40566 -1.06295,-0.71654 0.24525,-0.17278 0.1075,-0.20167 -0.43477,-0.0912 -0.51436,0.1048 -0.66752,0.0775 -0.43513,-0.0776 0.27238,-0.18178 0.15127,-0.34277 -0.50367,-0.6695 -0.95923,-0.47852 -1.57474,-0.55336 -1.57474,-0.19146 0,0.3184 -1.567894,0.85311 -1.948624,0.66455 -0.16519,-0.0818 -0.0686,0.0391 0.2146,0.26874 0.58776,0.47652 0.37264,0.81879 -0.67752,1.07793 -0.52207,0.12882 -0.74279,0.0523 -0.89986,-0.31201 z m 7.544734,-1.00452 c 0,-0.0687 -0.59156,-0.37942 -1.31458,-0.69045 -0.72303,-0.31104 -1.45198,-0.73107 -1.6199,-0.9334 -0.16792,-0.20233 -0.4098,-0.36788 -0.5375,-0.36788 -0.36667,0 -0.27025,0.79196 0.0985,0.80937 0.1819,0.009 0.86651,0.29358 1.52136,0.63332 1.15442,0.59892 1.85208,0.80574 1.85208,0.54904 z m -5.556254,-0.40423 c 0,-0.14552 -0.12609,-0.26458 -0.2802,-0.26458 -0.15411,0 -0.20661,0.11906 -0.11667,0.26458 0.0899,0.14552 0.21602,0.26459 0.2802,0.26459 0.0642,0 0.11667,-0.11907 0.11667,-0.26459 z m 5.556254,-0.39687 c -0.3638,-0.20797 -0.78052,-0.37813 -0.92604,-0.37813 -0.14552,0 0.0331,0.17016 0.39687,0.37813 0.36381,0.20797 0.78053,0.37812 0.92605,0.37812 0.14552,0 -0.0331,-0.17015 -0.39688,-0.37812 z m -4.894794,-0.13229 c -0.0899,-0.14553 -0.28258,-0.26459 -0.4281,-0.26459 -0.14553,0 -0.191,0.11906 -0.10107,0.26459 0.0899,0.14552 0.28259,0.26458 0.42811,0.26458 0.14552,0 0.191,-0.11906 0.10106,-0.26458 z m 2.513544,-1.19063 c -0.18116,-0.21828 -0.44844,-0.39687 -0.59396,-0.39687 -0.14759,0 -0.11894,0.17548 0.0648,0.39687 0.18116,0.21828 0.44844,0.39688 0.59396,0.39688 0.1476,0 0.11895,-0.17549 -0.0648,-0.39688 z m -5.735284,-0.7276 c -1.165,-1.29425 -0.706,-2.05214 0.59342,-0.97986 0.43009,0.35492 0.44216,0.33981 0.15667,-0.19603 -0.17013,-0.31932 -0.42751,-0.65363 -0.57197,-0.7429 -0.31032,-0.19179 -1.40025,-2.49628 -1.83963,-3.8896 -0.41345,-1.31113 -0.41591,-3.03094 -0.005,-3.526 0.18342,-0.22101 0.27313,-0.46221 0.19934,-0.53599 -0.74958,-0.74959 -1.13107,2.04862 -0.57911,4.2478 0.0938,0.37371 0.0515,0.66164 -0.0972,0.66164 -0.14478,0 -0.34327,-0.53378 -0.44111,-1.18618 -0.0978,-0.65239 -0.33049,-1.27747 -0.51701,-1.38906 -0.87848,-0.52555 0.11842,-3.77476 1.15815,-3.77476 0.14872,0 0.27041,-0.11906 0.27041,-0.26458 0,-0.5625 -0.48882,-0.21798 -1.22005,0.85989 -0.41956,0.61847 -0.83297,1.18401 -0.91868,1.25677 -0.17658,0.1499 -0.77169,1.81267 -0.77169,2.15615 0,0.60414 0.53379,0.12855 0.564,-0.5025 0.0313,-0.65446 0.0544,-0.63451 0.22975,0.19844 0.10721,0.50932 0.2106,0.77721 0.22975,0.59531 0.0192,-0.1819 0.15912,-0.33073 0.31102,-0.33073 0.1519,0 0.24881,0.14883 0.21536,0.33073 -0.28461,1.54778 2.36047,7.59783 3.32489,7.60496 0.13451,0.001 0.003,-0.26608 -0.2913,-0.5935 z m -1.64945,-2.92781 c -0.62356,-1.28811 -0.66492,-1.50396 -0.28819,-1.50396 0.14553,0 0.26459,0.18958 0.26459,0.42128 0,0.23171 0.23812,0.72402 0.52916,1.09402 0.56972,0.72428 0.67328,1.13053 0.28819,1.13053 -0.13254,0 -0.48973,-0.51384 -0.79375,-1.14187 z m 8.839944,2.13855 c -0.43656,-0.31573 -1.42992,-1.2347 -2.20747,-2.04214 -0.77754,-0.80745 -1.304834,-1.253 -1.17174,-0.99012 0.42622,0.84191 3.31183,3.62338 3.75002,3.6147 0.27883,-0.005 0.15247,-0.20399 -0.37081,-0.58244 z m 1.12133,-0.12104 c -0.246,-0.246 -0.53596,-0.35858 -0.64435,-0.25019 -0.10839,0.10839 -0.0219,0.30784 0.19214,0.44322 0.64415,0.40737 0.93041,0.28518 0.45221,-0.19303 z m -10.187834,-0.79426 c -0.28891,-0.40856 -0.83679,-1.57628 -1.2175,-2.59492 -0.56322,-1.50693 -0.6641,-1.65486 -0.54133,-0.79375 0.20008,1.40342 1.82071,4.5949 2.16066,4.25496 0.0679,-0.0679 -0.11293,-0.45773 -0.40183,-0.86629 z m 2.93315,-0.39352 c -1.32349,-1.98953 -1.74373,-3.1726 -1.86275,-5.24411 l -0.11401,-1.98438 1.0785,-1.12501 c 1.28441,-1.33981 1.409,-1.71367 0.24456,-0.73385 -0.5806,0.48853 -0.89206,0.60767 -1.02526,0.39214 -0.12532,-0.20275 -0.24895,-0.21632 -0.35834,-0.0393 -0.0919,0.14863 -0.02,0.31925 0.15977,0.37916 0.23761,0.0792 0.19101,0.31613 -0.17077,0.86828 -1.00119,1.52801 -0.22384,5.10263 1.65164,7.59498 1.15637,1.53672 1.43948,1.45973 0.39666,-0.10787 z m 4.594294,-1.18288 c -0.97252,-0.96301 -1.76822,-1.64086 -1.76822,-1.50633 0,0.33371 3.23581,3.5579 3.40297,3.39074 0.0734,-0.0734 -0.66223,-0.92139 -1.63475,-1.88441 z m -10.695724,-2.51123 c -0.15144,-0.15143 -0.22024,-0.0136 -0.17915,0.35884 0.095,0.86066 0.15488,0.93655 0.29861,0.37816 0.0695,-0.27012 0.0158,-0.60177 -0.11946,-0.737 z m -1.26916,-0.17411 c 0.058,-0.30129 0.23288,-0.78583 0.38857,-1.07674 0.51168,-0.95607 0.40061,-1.08318 -0.7415,-0.84856 -0.0542,0.0111 0.0539,0.20388 0.24014,0.42833 0.25654,0.3091 0.26439,0.48238 0.0324,0.71438 -0.16846,0.16845 -0.30629,0.59997 -0.30629,0.95892 0,0.74468 0.22946,0.64005 0.38668,-0.17633 z m 7.39448,-0.5659 c -0.42696,-1.23926 -0.30824,-2.37545 0.35376,-3.3858 0.21594,-0.32955 0.27342,-0.59919 0.12774,-0.59919 -0.98622,0 -1.5202,3.88053 -0.66414,4.82647 0.59852,0.66135 0.6379,0.47991 0.18264,-0.84148 z m -5.91694,-1.09724 c 0.31165,-0.58233 0.1938,-0.92959 -0.22717,-0.66941 -0.33945,0.20979 -0.58681,1.22124 -0.29867,1.22124 0.12678,0 0.3634,-0.24832 0.52584,-0.55183 z m 2.39329,-1.76327 c 0.3163,-0.83489 1.1895,-1.83737 1.9602,-2.25043 0.47383,-0.25394 0.49119,-0.23757 0.16604,0.15659 -0.19972,0.24211 -0.24793,0.44019 -0.10715,0.44019 0.35085,0 1.22375,-0.99529 1.29426,-1.47572 0.15497,-1.05587 -3.63266,2.13973 -3.94307,3.32675 -0.20923,0.80006 0.31396,0.63608 0.62972,-0.19738 z m 2.48937,-2.71198 c 0.0899,-0.14552 0.28258,-0.26458 0.4281,-0.26458 0.14552,0 0.191,0.11906 0.10107,0.26458 -0.0899,0.14552 -0.28259,0.26458 -0.42811,0.26458 -0.14552,0 -0.191,-0.11906 -0.10106,-0.26458 z m -3.05104,0.98345 c 0.65027,-0.71183 1.54323,-1.48163 1.98438,-1.71066 0.45111,-0.23421 0.65664,-0.46554 0.4697,-0.52866 -0.18281,-0.0617 -0.26592,-0.21977 -0.1847,-0.3512 0.0812,-0.13142 -0.0471,-0.16422 -0.28512,-0.0729 -0.34638,0.13292 -0.36233,0.21075 -0.0799,0.38979 0.1941,0.12304 0.27335,0.22554 0.17611,0.22777 -0.0972,0.002 -0.38466,0.0838 -0.63872,0.1813 -0.31492,0.12085 -0.40103,0.0787 -0.2706,-0.13229 0.1071,-0.17329 0.0457,-0.30955 -0.13946,-0.30955 -0.18626,0 -0.10639,-0.17976 0.18282,-0.41147 l 0.51359,-0.41147 -0.57792,0.27918 c -0.86616,0.41843 -1.37414,0.31808 -0.6127,-0.12102 0.3638,-0.2098 0.96903,-0.31955 1.34496,-0.24387 0.47498,0.0956 0.68351,0.0246 0.68351,-0.23283 0,-0.75278 -2.59765,0.19499 -2.71439,0.99036 -0.0488,0.33276 0.0731,0.39759 0.50929,0.27074 0.35855,-0.10427 -0.0215,0.38292 -1.014,1.29986 -0.87312,0.80665 -1.46843,1.47014 -1.32291,1.47442 0.14552,0.004 0.78011,-0.52603 1.41019,-1.17848 0.63009,-0.65243 1.28494,-1.1857 1.45521,-1.18502 0.17028,7.9e-4 -0.0723,0.35915 -0.53903,0.79662 -1.16138,1.08855 -2.1973,2.48242 -2.17852,2.93129 0.0104,0.24775 0.12077,0.20005 0.33073,-0.1429 0.17334,-0.28313 0.8472,-1.0972 1.49746,-1.80904 z m -2.10834,1.10199 c 0,-0.14552 -0.11906,-0.191 -0.26458,-0.10107 -0.14552,0.0899 -0.26458,0.28259 -0.26458,0.42811 0,0.14552 0.11906,0.191 0.26458,0.10106 0.14552,-0.0899 0.26458,-0.28258 0.26458,-0.4281 z m 4.38199,-2.55415 c -0.0887,-0.0887 -0.36677,0.0539 -0.61797,0.31693 l -0.45672,0.47818 0.61797,-0.31693 c 0.33988,-0.17431 0.54541,-0.38949 0.45672,-0.47818 z m 17.780484,0.12847 c -1.12069,-0.90677 -2.92309,-1.86976 -2.79818,-1.49502 0.0609,0.1828 0.46163,0.52206 0.89044,0.75392 0.42881,0.23186 1.07403,0.62954 1.43383,0.88374 0.94457,0.66734 1.33116,0.55097 0.47391,-0.14264 z m -20.707264,-0.18893 c 0.0899,-0.14552 0.0412,-0.26458 -0.10837,-0.26458 -0.14954,0 -0.19768,-0.19341 -0.10696,-0.4298 0.1468,-0.38255 0.0877,-0.37921 -0.53748,0.0304 -0.84721,0.55511 -0.90319,0.76334 -0.14009,0.52114 0.37839,-0.12009 0.50308,-0.0827 0.38125,0.11447 -0.0996,0.16111 -0.062,0.29293 0.0836,0.29293 0.14552,0 0.33817,-0.11907 0.4281,-0.26459 z m 17.462504,-1.5875 c -0.0899,-0.14552 -0.30532,-0.26276 -0.47863,-0.26053 -0.18934,0.002 -0.15671,0.10642 0.0818,0.26053 0.50829,0.32849 0.59989,0.32849 0.39687,0 z m -17.065624,-0.25628 c 0,-0.14095 -0.1786,-0.18774 -0.39688,-0.10398 -0.21828,0.0838 -0.39687,0.19909 -0.39687,0.25628 0,0.0572 0.17859,0.10398 0.39687,0.10398 0.21828,0 0.39688,-0.11532 0.39688,-0.25628 z m 5.01746,-0.129 c 0.48283,-0.58177 0.0911,-0.94039 -0.99818,-0.91377 l -0.97657,0.0239 0.88139,0.25385 c 0.72982,0.2102 0.82662,0.31985 0.56291,0.6376 -0.1825,0.2199 -0.20551,0.38374 -0.0539,0.38374 0.14552,0 0.40848,-0.17338 0.58434,-0.38529 z m -2.96694,-0.40486 c 0.1819,-0.002 0.33073,-0.1822 0.33073,-0.40048 0,-0.24939 0.25162,-0.39688 0.67707,-0.39688 0.37239,0 0.60875,-0.11055 0.52524,-0.24567 -0.0835,-0.13511 0.11783,-0.30743 0.44741,-0.38291 0.32958,-0.0755 -0.47233,-0.0919 -1.78201,-0.0364 -1.30969,0.0555 -2.23243,0.0393 -2.05052,-0.036 0.4743,-0.19629 0.41013,-0.6358 -0.0661,-0.45304 -0.5838,0.22403 -0.5215,1.2241 0.0661,1.0618 0.99917,-0.27596 3.11212,-0.42816 2.57968,-0.18582 -0.29104,0.13246 -0.82682,0.25758 -1.19062,0.27804 -0.60971,0.0343 -0.62006,0.055 -0.13229,0.26458 0.4689,0.2015 0.44631,0.22951 -0.19844,0.24599 -0.40018,0.0102 -0.72761,0.15154 -0.72761,0.31404 0,0.17726 0.23813,0.23162 0.59532,0.1359 0.32742,-0.0877 0.74414,-0.16116 0.92604,-0.16315 z m 7.129704,0.0759 c -0.38452,-0.0997 -0.41519,-0.19826 -0.15809,-0.50805 0.27303,-0.32898 0.15118,-0.36482 -0.84585,-0.24883 l -1.16482,0.13551 1.19062,-0.30112 1.19063,-0.30111 -1.05834,-0.33365 c -0.58208,-0.18351 -1.35599,-0.35467 -1.719794,-0.38036 l -0.66146,-0.0467 0.66146,-0.18661 c 0.607294,-0.17132 0.568434,-0.21043 -0.47448,-0.47757 -0.96719,-0.24774 -1.09012,-0.23575 -0.8275,0.0807 0.43016,0.51832 -0.18886,0.50611 -0.70895,-0.014 -0.22712,-0.22711 -0.57281,-0.30966 -0.841,-0.20082 -0.37626,0.1527 -0.34449,0.20088 0.18284,0.27736 0.42711,0.0619 0.5291,0.15999 0.30836,0.29641 -0.18992,0.11738 0.36067,0.28198 1.29799,0.38803 2.428114,0.27471 3.032074,0.55247 1.731714,0.79642 -0.757074,0.14203 -0.929134,0.25643 -0.650664,0.43265 0.324164,0.20514 0.321524,0.24394 -0.0183,0.26999 -0.78639,0.0603 0.950624,0.454 1.984374,0.44978 0.58209,-0.002 0.84365,-0.06 0.58127,-0.12802 z m -1.57345,-0.25472 c 0.1819,-0.0734 0.47956,-0.0734 0.66146,0 0.1819,0.0734 0.0331,0.13346 -0.33073,0.13346 -0.3638,0 -0.51263,-0.06 -0.33073,-0.13346 z m -1.686724,-0.67203 c -0.0718,-0.11609 -0.51038,-0.19699 -0.97473,-0.17977 l -0.84428,0.0313 0.79375,0.20198 c 0.43656,0.11108 0.69743,0.21606 0.5797,0.23328 -0.11773,0.0172 -0.13262,0.16307 -0.0331,0.32413 0.12709,0.20563 0.24472,0.18969 0.39504,-0.0535 0.11773,-0.19049 0.15535,-0.44133 0.0836,-0.55741 z m 6.263434,0.40622 c -0.50236,-0.21884 -1.03814,-0.54493 -1.19062,-0.72464 -0.28521,-0.33616 -2.99839,-1.09616 -3.19858,-0.89596 -0.0616,0.0616 0.50959,0.27123 1.26924,0.46592 1.10816,0.28401 1.27721,0.39459 0.85519,0.55938 -0.47592,0.18584 -0.46302,0.20909 0.13545,0.24412 0.36381,0.0213 1.07818,0.19921 1.5875,0.39535 1.2586,0.48468 1.67749,0.45053 0.54182,-0.0442 z m -9.195804,-1.82835 c -0.58464,-0.44342 -0.96716,-0.48147 -0.71346,-0.071 0.11791,0.19077 0.0725,0.23357 -0.12099,0.114 -0.17038,-0.10529 -0.24128,-0.30228 -0.15756,-0.43775 0.24658,-0.39897 -0.41073,-0.28155 -0.84285,0.15057 -0.35277,0.35278 -0.34894,0.39688 0.0345,0.39688 0.23726,0 0.37485,0.0915 0.30574,0.2033 -0.0691,0.11182 0.34558,0.15837 0.92154,0.10345 0.94636,-0.0903 1.00154,-0.1345 0.57306,-0.45948 z m -3.18612,-0.0225 c -0.1819,-0.0734 -0.47956,-0.0734 -0.66146,0 -0.1819,0.0734 -0.0331,0.13345 0.33073,0.13345 0.3638,0 0.51263,-0.0601 0.33073,-0.13345 z m 10.502334,-0.75027 0.64659,-0.33366 -1.44034,-0.19371 c -0.7922,-0.10653 -1.61894,-0.30587 -1.83723,-0.44296 -0.27316,-0.17156 -0.10822,-0.2039 0.52917,-0.10373 2.40702,0.37826 3.04505,0.42147 2.51354,0.17022 l -0.52916,-0.25014 0.52916,-0.0388 c 0.29104,-0.0213 -0.24474,-0.27453 -1.19062,-0.56263 -3.521424,-1.07256 -4.586034,-1.30555 -4.833734,-1.05785 -0.1523,0.1523 -0.009,0.24635 0.37537,0.24606 0.88267,-5.3e-4 5.206944,1.20536 4.700094,1.31083 -0.23084,0.048 -0.91453,-0.0238 -1.5193,-0.15972 -0.62873,-0.14126 -1.03712,-0.146 -0.95372,-0.0111 0.0802,0.1298 -0.027,0.236 -0.23833,0.236 -0.627964,0 -0.741764,0.74655 -0.142774,0.93665 0.294584,0.0935 0.606004,0.0996 0.692054,0.0135 0.0861,-0.0861 0.0175,-0.15646 -0.15223,-0.15646 -0.16978,0 -0.30868,-0.12325 -0.30868,-0.27389 0,-0.1888 0.15899,-0.1888 0.51177,0 0.28148,0.15064 0.7507,0.27389 1.04272,0.27389 0.29202,0 0.60342,0.11727 0.692,0.2606 0.0956,0.15465 -0.14011,0.22232 -0.57969,0.16644 -0.40742,-0.0518 -0.56217,-0.0339 -0.34389,0.0397 0.31474,0.10612 0.28737,0.18104 -0.13229,0.36205 -0.36082,0.15564 -0.23457,0.17641 0.39688,0.0653 0.50932,-0.0896 1.21701,-0.3131 1.57264,-0.49661 z m -10.700774,0.13173 0.52917,-0.22739 -0.52917,-0.0145 c -0.29104,-0.008 -0.70776,0.10087 -0.92604,0.24194 -0.52596,0.3399 0.13504,0.3399 0.92604,0 z m 7.871364,0.0894 c -0.1819,-0.0734 -0.47956,-0.0734 -0.661464,0 -0.1819,0.0734 -0.0331,0.13346 0.330734,0.13346 0.3638,0 0.51263,-0.0601 0.33073,-0.13346 z m -3.373444,-0.35394 c 0.10035,-0.16236 -0.27694,-0.25249 -0.97657,-0.23328 -1.06323,0.0292 -1.08658,0.0449 -0.34635,0.23328 1.14119,0.29039 1.14345,0.29039 1.32292,0 z m 2.1773,0.10473 c -0.0879,-0.0879 -0.31612,-0.0973 -0.50712,-0.0209 -0.21106,0.0845 -0.14837,0.14716 0.15986,0.15985 0.27891,0.0115 0.43518,-0.0511 0.34726,-0.13896 z m 5.760744,-0.009 c 0.35155,-0.1349 0.36931,-0.21436 0.0878,-0.39282 -0.50855,-0.32237 -0.6616,-0.28419 -0.6616,0.16506 0,0.4558 -0.0101,0.45181 0.57381,0.22776 z m 1.38301,0.009 c -0.0879,-0.0879 -0.31612,-0.0973 -0.50712,-0.0209 -0.21106,0.0845 -0.14837,0.14716 0.15986,0.15985 0.27891,0.0115 0.43518,-0.0511 0.34726,-0.13896 z m 3.24666,0.014 c 0,-0.1954 -1.74624,-0.91641 -2.17432,-0.89775 -0.18657,0.008 0.19656,0.2396 0.8514,0.51438 1.40795,0.59079 1.32292,0.56615 1.32292,0.38337 z m -17.690914,-0.5918 c -0.19089,-0.0636 -0.47286,0.0101 -0.62661,0.16386 -0.19634,0.19634 -0.093,0.23077 0.34706,0.11569 0.35777,-0.0936 0.47771,-0.2135 0.27955,-0.27955 z m 2.41122,0.29778 c -0.1819,-0.0734 -0.47956,-0.0734 -0.66146,0 -0.1819,0.0734 -0.0331,0.13346 0.33073,0.13346 0.3638,0 0.51263,-0.06 0.33073,-0.13346 z m 4.55083,-0.32683 c -0.13824,-0.13062 -0.7276,-0.29962 -1.30968,-0.37557 -0.58209,-0.0759 -1.41552,-0.20885 -1.85209,-0.29535 -0.62351,-0.12354 -0.68026,-0.10372 -0.26458,0.0924 0.45591,0.21509 0.40097,0.25905 -0.39688,0.31754 -0.50932,0.0373 0.086,0.14259 1.32292,0.23389 1.23693,0.0913 2.36207,0.18818 2.50031,0.21529 0.15875,0.0311 0.15875,-0.0382 0,-0.18819 z m 7.289274,5.3e-4 c -0.21828,-0.12146 -0.75406,-0.29154 -1.19062,-0.37796 l -0.79375,-0.15713 0.79375,0.37407 c 0.893,0.42085 1.90307,0.55744 1.19062,0.16102 z m -14.552084,-0.54618 c 0,-0.13966 -0.34559,-0.22896 -0.76797,-0.19843 -0.42238,0.0305 -0.71301,0.14479 -0.64584,0.25393 0.17904,0.29091 1.41381,0.24245 1.41381,-0.0555 z m 7.67292,-0.0106 c 0,-0.14552 -0.20836,-0.26276 -0.46302,-0.26053 -0.3957,0.004 -0.40532,0.0413 -0.0661,0.26053 0.49933,0.32269 0.52917,0.32269 0.52917,0 z m 7.540624,0 c -0.0899,-0.14552 -0.42438,-0.27295 -0.74322,-0.28318 -0.31883,-0.0102 -0.81782,-0.13112 -1.10886,-0.26865 -0.43054,-0.20344 -0.38123,-0.22666 0.26458,-0.12456 l 0.79375,0.12548 -0.79375,-0.37407 c -0.43656,-0.20574 -0.97234,-0.37107 -1.19062,-0.3674 -0.25568,0.004 -0.20861,0.0876 0.13229,0.23405 0.48806,0.20973 0.47778,0.23046 -0.13229,0.26687 -0.38534,0.023 -0.49579,0.0941 -0.26459,0.17024 0.21829,0.0719 0.635,0.23497 0.92605,0.36235 1.0979,0.48051 2.34815,0.63342 2.11666,0.25887 z m -13.290274,-0.17355 c -0.17914,-0.0725 -0.53632,-0.0769 -0.79375,-0.01 -0.25744,0.0671 -0.11087,0.12638 0.32569,0.13178 0.43656,0.005 0.64719,-0.0495 0.46806,-0.12197 z m 4.42673,-0.091 c -0.21828,-0.14106 -0.635,-0.24993 -0.92604,-0.24193 l -0.52917,0.0145 0.52917,0.22739 c 0.791,0.33991 1.45201,0.33991 0.92604,0 z m -7.73906,-0.44696 c -0.25466,-0.0666 -0.67138,-0.0666 -0.92604,0 -0.25466,0.0665 -0.0463,0.121 0.46302,0.121 0.50932,0 0.71768,-0.0545 0.46302,-0.121 z m 1.91823,-0.0822 c 0,-0.14553 -0.20836,-0.26276 -0.46302,-0.26054 -0.3957,0.004 -0.40532,0.0413 -0.0662,0.26054 0.49933,0.32268 0.52917,0.32268 0.52917,0 z m 3.63251,0.10473 c -0.0879,-0.0879 -0.31613,-0.0973 -0.50712,-0.0209 -0.21107,0.0845 -0.14837,0.14715 0.15985,0.15985 0.27891,0.0115 0.43519,-0.051 0.34727,-0.13897 z m 3.24665,-0.10473 c -0.52126,-0.33687 -1.13423,-0.33687 -0.92604,0 0.0899,0.14552 0.42439,0.26276 0.74322,0.26053 0.47129,-0.003 0.50548,-0.052 0.18282,-0.26053 z m -3.24665,-0.42444 c -0.0879,-0.0879 -0.31613,-0.0973 -0.50712,-0.0209 -0.21107,0.0845 -0.14837,0.14715 0.15985,0.15985 0.27891,0.0115 0.43519,-0.051 0.34727,-0.13897 z m 5.783304,-0.25672 c -0.56938,-0.2086 -1.09244,-0.32208 -1.16235,-0.25217 -0.0699,0.0699 0.0387,0.18002 0.24148,0.24468 0.20273,0.0647 0.54719,0.17712 0.76547,0.24992 0.9512,0.31724 1.09037,0.10012 0.1554,-0.24243 z m -10.408004,-0.0394 c -0.47294,-0.0587 -1.24685,-0.0587 -1.71979,0 -0.47294,0.0587 -0.086,0.10672 0.85989,0.10672 0.94589,0 1.33284,-0.048 0.8599,-0.10672 z m 2.77813,0.009 c -0.25467,-0.0665 -0.67138,-0.0665 -0.92605,0 -0.25466,0.0666 -0.0463,0.121 0.46302,0.121 0.50933,0 0.71769,-0.0545 0.46303,-0.121 z m 9.591144,0.0717 c 0,-0.18548 -3.46398,-1.27599 -3.60504,-1.13493 -0.0724,0.0724 0.6198,0.36975 1.53825,0.66073 1.84761,0.58537 2.06679,0.63566 2.06679,0.4742 z m 1.57342,-0.14592 c -0.6179,-0.36169 -5.01344,-1.76795 -6.071344,-1.94241 -1.29968,-0.21433 -0.47965,0.11806 3.042714,1.23334 3.00822,0.95247 3.73528,1.1227 3.02863,0.70906 z m 1.98523,0.0199 c -0.13825,-0.13018 -1.14018,-0.55358 -2.22652,-0.94089 -2.4786,-0.88369 -5.746384,-1.79655 -5.416914,-1.51323 0.13658,0.11745 1.325754,0.52753 2.642614,0.9113 1.31686,0.38377 2.9242,0.93275 3.57187,1.21995 1.30247,0.57756 1.82472,0.69556 1.42895,0.32287 z m -15.068024,-0.55707 c 0.0944,-0.15269 -0.15079,-0.26286 -0.5797,-0.26053 -0.57709,0.003 -0.65451,0.0614 -0.34635,0.26053 0.50835,0.32852 0.72301,0.32852 0.92605,0 z m 1.4552,0 c -0.51296,-0.3315 -0.79375,-0.3315 -0.79375,0 0,0.14553 0.2679,0.26277 0.59532,0.26054 0.48139,-0.003 0.51936,-0.0531 0.19843,-0.26054 z m 1.78043,0.10473 c -0.0879,-0.0879 -0.31612,-0.0973 -0.50712,-0.0209 -0.21106,0.0845 -0.14837,0.14716 0.15986,0.15985 0.27891,0.0115 0.43518,-0.051 0.34726,-0.13896 z m 14.094574,-0.20871 c 0,-0.0572 -0.18477,-0.17489 -0.41061,-0.26155 -0.23546,-0.0904 -0.34166,-0.046 -0.24897,0.10398 0.15538,0.25141 0.65958,0.37186 0.65958,0.15757 z m -12.628814,-0.33415 c -0.17914,-0.0725 -0.53632,-0.0769 -0.79375,-0.01 -0.25744,0.0671 -0.11087,0.12638 0.32569,0.13177 0.43656,0.005 0.64719,-0.0495 0.46806,-0.12197 z m -3.8415,-0.28054 c -0.40018,-0.0606 -1.05502,-0.0606 -1.45521,0 -0.40018,0.0606 -0.0728,0.11022 0.72761,0.11022 0.80036,0 1.12778,-0.0496 0.7276,-0.11022 z m 6.34449,0.0297 c -0.0879,-0.0879 -0.31612,-0.0973 -0.50712,-0.0209 -0.21106,0.0845 -0.14837,0.14716 0.15986,0.15985 0.27891,0.0115 0.43518,-0.051 0.34726,-0.13896 z m -2.1773,-0.36931 c -0.0899,-0.14552 -0.60298,-0.24891 -1.1401,-0.22976 l -0.97657,0.0348 0.92604,0.19493 c 1.36355,0.28701 1.36801,0.28701 1.19063,0 z m 1.11897,0.10473 c -0.0879,-0.0879 -0.31613,-0.0973 -0.50712,-0.0209 -0.21107,0.0845 -0.14837,0.14715 0.15985,0.15985 0.27891,0.0115 0.43519,-0.051 0.34727,-0.13897 z m 5.620244,-0.64423 c -0.21406,-0.13538 -0.68687,-0.24125 -1.05067,-0.23527 -0.5731,0.009 -0.53775,0.0551 0.26458,0.34219 0.99254,0.35509 1.42387,0.29642 0.78609,-0.10692 z m -12.763994,0.11506 c -0.0879,-0.0879 -0.31613,-0.0973 -0.50712,-0.0209 -0.21107,0.0845 -0.14837,0.14716 0.15985,0.15985 0.27892,0.0115 0.43519,-0.051 0.34727,-0.13896 z m 2.71749,-0.23702 c -0.18116,-0.21828 -0.46363,-0.39505 -0.62771,-0.39283 -0.16979,0.002 -0.13928,0.10477 0.0708,0.23779 0.29659,0.18781 0.27059,0.25897 -0.13229,0.36213 -0.34158,0.0875 -0.25914,0.13819 0.25857,0.15909 0.64692,0.0261 0.711,-0.0284 0.43063,-0.36618 z m 3.9026,-0.0501 c -0.25466,-0.0665 -0.67138,-0.0665 -0.92604,0 -0.25466,0.0666 -0.0463,0.121 0.46302,0.121 0.50932,0 0.71768,-0.0545 0.46302,-0.121 z m -1.91823,-0.34678 c -0.42097,-0.1809 -0.31277,-0.235 0.52917,-0.26459 0.84194,-0.0296 0.95014,-0.0837 0.52917,-0.26458 -0.86689,-0.37251 -1.98438,-0.30894 -1.98438,0.11289 0,0.20761 -0.20836,0.43193 -0.46302,0.49848 -0.25466,0.0665 0.0728,0.12644 0.7276,0.13309 0.89093,0.009 1.05743,-0.0451 0.66146,-0.21529 z m 3.04271,0 c -0.51815,-0.33486 -0.86841,-0.33486 -0.66146,0 0.0899,0.14552 0.36486,0.26276 0.61093,0.26053 0.38557,-0.004 0.39256,-0.0395 0.0505,-0.26053 z m 2.784874,-0.0544 c -0.63899,-0.37052 -2.520294,-0.7363 -2.520294,-0.49002 0,0.098 0.50602,0.30239 1.124484,0.45413 1.59305,0.39085 2.02722,0.40201 1.39581,0.0359 z m -7.216644,-0.64996 c -0.1819,-0.0734 -0.47956,-0.0734 -0.66146,0 -0.1819,0.0734 -0.0331,0.13345 0.33073,0.13345 0.3638,0 0.51263,-0.0601 0.33073,-0.13345 z m 9.723444,-0.35394 c -0.52126,-0.33686 -1.13424,-0.33686 -0.92604,0 0.0899,0.14552 0.42438,0.26276 0.74322,0.26053 0.47128,-0.003 0.50547,-0.052 0.18282,-0.26053 z m -6.950834,-0.15985 c -0.0879,-0.0879 -0.31612,-0.0973 -0.50711,-0.0209 -0.21107,0.0845 -0.14838,0.14715 0.15985,0.15985 0.27891,0.0115 0.43518,-0.051 0.34726,-0.13897 z m -3.03719,-0.27996 c -0.1819,-0.0734 -0.47956,-0.0734 -0.66146,0 -0.1819,0.0734 -0.0331,0.13345 0.33073,0.13345 0.3638,0 0.51263,-0.0601 0.33073,-0.13345 z m 8.202084,0 c -0.1819,-0.0734 -0.47956,-0.0734 -0.66146,0 -0.1819,0.0734 -0.0331,0.13345 0.33073,0.13345 0.3638,0 0.51263,-0.0601 0.33073,-0.13345 z m 3.05549,-0.36798 c -0.54097,-0.31544 -2.80343,-0.65512 -2.53975,-0.38132 0.21447,0.2227 1.6888,0.59704 2.46082,0.62482 0.47468,0.0171 0.48281,-0.008 0.0789,-0.2435 z m -3.75999,-0.66711 c -0.56938,-0.20861 -1.10171,-0.31281 -1.18297,-0.23156 -0.26049,0.26049 0.60499,0.6405 1.42445,0.62543 l 0.79375,-0.0146 z m 0.77065,-0.37718 c -0.0899,-0.14552 -0.36486,-0.25622 -0.61093,-0.24599 -0.36473,0.0152 -0.34962,0.0606 0.0818,0.24599 0.708,0.30423 0.71719,0.30423 0.52917,0 z m -10.318754,29.89791 c -0.0899,-0.14552 -0.0304,-0.26458 0.13229,-0.26458 0.1627,0 0.20972,-0.13929 0.1045,-0.30955 -0.12863,-0.20813 -0.0471,-0.25419 0.24897,-0.14059 0.24215,0.0929 0.44028,0.0536 0.44028,-0.0873 0,-0.14095 -0.11533,-0.25628 -0.25628,-0.25628 -0.14095,0 -0.18555,-0.18432 -0.0991,-0.40959 0.0897,-0.23377 -0.0558,-0.58376 -0.33903,-0.81535 l -0.49621,-0.40576 0.50045,0.15995 c 0.44255,0.14144 0.45785,0.10832 0.13229,-0.2863 -0.33826,-0.41002 -0.31445,-0.41863 0.2933,-0.10596 0.54797,0.2819 0.60472,0.28025 0.33073,-0.01 -0.1819,-0.19244 -0.32711,-0.53444 -0.32268,-0.76 0.007,-0.33759 0.0557,-0.32823 0.27773,0.0529 0.14833,0.25467 0.38384,0.46303 0.52336,0.46303 0.26093,0 -0.13672,-0.84592 -0.77014,-1.63834 -0.19684,-0.24624 -0.30532,-0.60343 -0.24109,-0.79375 0.0697,-0.20641 0.28779,-0.0166 0.54058,0.47028 0.23308,0.44898 0.97563,1.49377 1.6501,2.32176 0.67448,0.82799 1.12805,1.48321 1.00793,1.45606 -0.12011,-0.0272 -0.5603,0.0915 -0.97818,0.26361 -0.59419,0.24479 -0.85368,0.24067 -1.19062,-0.0189 -0.31875,-0.24552 -0.3059,-0.185 0.0494,0.23263 0.46896,0.55121 0.22863,1.10567 -0.32969,0.76061 -0.13546,-0.0837 -0.32108,-0.0312 -0.41249,0.11668 -0.21192,0.34289 -0.58591,0.34492 -0.79641,0.004 z m 2.51354,-2.38125 c 0,-0.14552 -0.12609,-0.26458 -0.2802,-0.26458 -0.15411,0 -0.20661,0.11906 -0.11668,0.26458 0.0899,0.14552 0.21603,0.26459 0.2802,0.26459 0.0642,0 0.11668,-0.11907 0.11668,-0.26459 z m 37.364334,2.05052 c 0.21095,-0.32742 0.71203,-1.16057 1.11353,-1.85144 l 0.73001,-1.25614 -0.59917,-0.22164 c -0.74301,-0.27486 -0.22601,-0.68727 0.552,-0.44034 0.82089,0.26054 -0.87944,4.36488 -1.80827,4.36488 -0.31559,0 -0.31379,-0.0898 0.0119,-0.59532 z m -25.30024,-0.95085 c -0.27909,-0.45157 0.20961,-0.5513 1.57876,-0.32216 0.71836,0.12022 1.15728,0.24747 0.97538,0.28278 -0.8163,0.15844 -1.01788,0.153 -1.41468,-0.0382 -0.23237,-0.11197 -0.54635,-0.0797 -0.69774,0.0717 -0.18584,0.18584 -0.32933,0.18776 -0.44172,0.006 z m -39.879492,-3.34857 c -0.317121,-1.09141 -0.677296,-1.98438 -0.800385,-1.98438 -0.517832,0 -0.170093,-0.47774 0.431437,-0.59273 0.77918,-0.14895 1.027745,0.0266 0.661882,0.46742 -0.182089,0.21941 -0.09912,0.85197 0.263464,2.00872 0.609047,1.94303 0.628028,2.08534 0.278133,2.08534 -0.14187,0 -0.517409,-0.89297 -0.834531,-1.98437 z m 22.523728,1.29722 c 0,-0.83249 0.90366,-1.42047 1.15929,-0.75431 0.0904,0.23545 0.046,0.34166 -0.10398,0.24896 -0.14386,-0.0889 -0.26156,-0.0483 -0.26156,0.0902 0,0.13855 -0.17859,0.32043 -0.39687,0.40419 -0.21828,0.0838 -0.39688,0.0887 -0.39688,0.0109 z m 19.488244,-0.11933 c -2.01926,-0.33888 -4.22369,-1.60026 -5.69146,-3.25667 -0.23943,-0.27019 -0.8195,-0.89459 -1.28906,-1.38753 -1.82117,-1.91189 -2.560894,-4.77339 -1.39522,-5.39723 0.34242,-0.18326 0.52917,-0.18947 0.52917,-0.0176 0,0.14607 0.18857,0.19322 0.41906,0.10478 0.29552,-0.11341 0.32798,-0.2171 0.1101,-0.35175 -0.21544,-0.13315 -0.17556,-0.24213 0.13175,-0.36006 1.4518,-0.5571 3.4138,0.36623 4.76831,2.24399 1.76916,2.4526 3.35978,3.64885 6.13265,4.61213 1.51452,0.52614 1.67289,0.97715 0.22875,0.65145 -2.40786,-0.54307 -5.30129,-2.76952 -6.90912,-5.31647 -0.38146,-0.60429 -0.92148,-1.15831 -1.20004,-1.23115 -0.27855,-0.0728 -0.50646,-0.24464 -0.50646,-0.38178 0,-0.13713 -0.11084,-0.18084 -0.2463,-0.0971 -0.13547,0.0837 -0.32109,0.0312 -0.41249,-0.11667 -0.0914,-0.1479 -0.54612,-0.25675 -1.01047,-0.24189 l -0.84428,0.027 0.85989,0.27585 c 0.47294,0.15171 0.8599,0.37474 0.8599,0.4956 0,0.12087 -0.31705,0.0992 -0.70455,-0.0481 -1.18818,-0.45174 -1.32503,0.10943 -0.33854,1.38832 0.48431,0.62789 0.90922,1.18329 0.94423,1.23425 0.035,0.051 0.20143,0.008 0.36982,-0.0966 0.20331,-0.12566 -0.031,-0.53452 -0.69756,-1.21712 -0.55204,-0.56535 -0.88357,-1.0279 -0.73672,-1.0279 0.14685,0 1.5217,1.25015 3.05523,2.77812 1.53353,1.52797 2.64341,2.77813 2.4664,2.77813 -0.177,0 -0.9553,-0.65177 -1.72955,-1.44837 -1.45635,-1.49841 -2.26279,-1.83028 -0.88968,-0.36614 0.42595,0.4542 0.59587,0.7712 0.37758,0.70445 -0.21828,-0.0667 -0.66476,-0.51674 -0.99218,-0.99999 -0.32742,-0.48324 -0.59532,-0.7047 -0.59532,-0.49212 0,0.48317 1.5174,1.96672 1.76171,1.72241 0.20742,-0.20742 1.14871,0.57202 1.14871,0.9512 0,0.1397 -0.29347,0.0617 -0.65215,-0.1733 -0.8866,-0.58093 -1.11695,-0.53735 -0.53847,0.10186 0.84536,0.93412 0.0395,0.5634 -1.19063,-0.5477 -1.11234,-1.00473 -1.02355,-1.20923 0.11808,-0.27195 0.4857,0.39876 0.0619,-0.17657 -2.07457,-2.81611 -0.49958,-0.61723 -0.96182,-1.27207 -1.02719,-1.45521 -0.0654,-0.18315 -0.20296,-0.25529 -0.30572,-0.16032 -0.10277,0.095 -0.0409,0.45216 0.13738,0.79375 0.42351,0.81128 0.78756,1.52007 1.2158,2.36713 0.35984,0.71176 2.73836,3.05889 3.62185,3.57406 0.31062,0.18112 0.39515,0.35938 0.22136,0.46679 -0.7244,0.4477 -5.05113,-4.51762 -5.502,-6.31405 -0.0923,-0.36766 -0.28641,-0.74179 -0.43139,-0.8314 -0.15376,-0.095 -0.20847,0.0438 -0.13128,0.33323 0.0728,0.27288 0.2744,1.04308 0.44802,1.71154 0.64695,2.49085 5.10704,6.04776 8.27372,6.59826 0.98227,0.17076 1.78594,0.41731 1.78594,0.54789 0,0.26635 -0.13472,0.26358 -1.94301,-0.0399 z m -8.899604,-0.37775 c -0.20869,-0.25145 -0.22876,-0.40327 -0.0533,-0.40327 0.319774,0 0.692574,0.50197 0.509094,0.68546 -0.0666,0.0666 -0.27169,-0.0604 -0.455774,-0.28219 z m 8.990534,-0.42873 c -1.7038,-0.33208 -2.72596,-0.794 -2.42438,-1.09558 0.15814,-0.15814 0.45703,-0.14058 0.80847,0.0475 0.36857,0.19725 0.55757,0.20556 0.55757,0.0245 0,-0.15063 -0.16014,-0.27388 -0.35586,-0.27388 -0.19573,0 -0.57137,-0.23813 -0.83476,-0.52917 -0.62137,-0.6866 -0.47099,-0.66734 1.03293,0.13229 0.68421,0.36381 1.42335,0.66146 1.64252,0.66146 0.21917,0 0.3237,0.12101 0.2323,0.2689 -0.0914,0.1479 -0.29542,0.18903 -0.45337,0.0914 -0.1714,-0.10593 -0.21107,-0.0543 -0.0984,0.12798 0.10384,0.168 0.41989,0.30546 0.70234,0.30546 0.28246,0 0.51355,0.11906 0.51355,0.26459 0,0.14552 -0.0298,0.25153 -0.0661,0.23559 -0.0364,-0.016 -0.60193,-0.13342 -1.25677,-0.26105 z m 2.16938,-0.25068 c -1.38313,-0.30358 -1.37314,-0.58643 0.0134,-0.38002 0.85889,0.12785 1.25677,0.0938 1.25677,-0.10755 0,-0.16204 0.18562,-0.29462 0.41249,-0.29462 0.22687,0 0.3393,0.11842 0.24984,0.26316 -0.31315,0.50669 -1.06668,0.70907 -1.93253,0.51903 z m -1.12445,-1.3364 c -0.26919,-0.50299 -0.23949,-0.53828 0.32142,-0.38197 l 0.61802,0.17223 -0.74235,-0.67636 c -0.71773,-0.65392 -1.70719,-0.95038 -1.37431,-0.41177 0.0899,0.14552 0.0247,0.26458 -0.14499,0.26458 -0.16967,0 -0.2444,-0.16705 -0.16606,-0.37121 0.0829,-0.21599 -0.19758,-0.63088 -0.67071,-0.99219 -0.44724,-0.34154 -1.33186,-1.27582 -1.96582,-2.07618 -0.63396,-0.80037 -1.41822,-1.7231 -1.74281,-2.05052 -0.32458,-0.32743 -0.46243,-0.59532 -0.30633,-0.59532 0.1561,0 1.08985,0.95515 2.07499,2.12254 1.93366,2.29138 4.21252,3.84951 6.55975,4.48509 0.69122,0.18717 1.25677,0.4439 1.25677,0.57051 0,0.33364 -0.33827,0.28487 -1.2789,-0.18438 -0.8791,-0.43855 -1.36694,-0.33223 -1.36694,0.2979 0,0.57558 -0.73457,0.45704 -1.07173,-0.17295 z m 24.02434,0.004 c -0.25466,-0.14832 -0.46302,-0.44236 -0.46302,-0.65341 0,-0.45278 0.42047,-0.50907 0.67891,-0.0909 0.12616,0.20414 0.24988,0.1841 0.40844,-0.0661 0.3313,-0.52285 0.28639,-0.75585 -0.1457,-0.75585 -0.59761,0 -0.74598,-0.47031 -0.55342,-1.75436 0.16438,-1.09617 0.23269,-1.18131 0.88712,-1.10569 l 0.70902,0.0819 -0.0777,1.66693 c -0.12149,2.60479 -0.46729,3.24616 -1.44361,2.6775 z m 0.90431,-3.74439 c -0.19655,-0.19655 -0.3308,-0.0761 -0.45155,0.40499 -0.2514,1.00163 0.17589,1.5408 0.48534,0.61244 0.16214,-0.48644 0.15063,-0.833 -0.0338,-1.01743 z m -27.06875,3.24522 c -0.47466,-0.39543 -0.5233,-0.52247 -0.20261,-0.52916 0.23211,-0.005 0.63751,0.22932 0.9009,0.52036 0.61648,0.6812 0.1164,0.68751 -0.69829,0.009 z m -19.235974,-0.80254 c 0,-0.3638 0.06,-0.51263 0.13345,-0.33073 0.0734,0.1819 0.0734,0.47956 0,0.66146 -0.0734,0.1819 -0.13345,0.0331 -0.13345,-0.33073 z m 0.64163,0.0355 c -0.11398,-0.18442 -0.13578,-0.40675 -0.0485,-0.49409 0.2368,-0.23679 0.49498,0.11147 0.36708,0.49516 -0.0896,0.26886 -0.15194,0.26865 -0.31863,-0.001 z m 22.387504,-0.84304 c -1.09034,-0.4842 -2.17966,-1.31035 -1.7247,-1.30803 0.11953,5.3e-4 0.80306,0.29827 1.51895,0.66146 0.71588,0.36319 1.46002,0.66035 1.65364,0.66035 0.19362,0 0.35203,0.11906 0.35203,0.26458 0,0.37742 -0.4959,0.30072 -1.79992,-0.27836 z m -23.070914,-0.2508 c 0,-0.14553 -0.20836,-0.27399 -0.46302,-0.28548 -0.27661,-0.0125 -0.32987,-0.0746 -0.13229,-0.15434 0.1819,-0.0734 0.33073,-0.36165 0.33073,-0.64057 0,-0.27891 0.11906,-0.50711 0.26458,-0.50711 0.14552,0 0.26458,0.41671 0.26458,0.92604 0,0.50932 -0.0595,0.92604 -0.13229,0.92604 -0.0728,0 -0.13229,-0.11906 -0.13229,-0.26458 z m 23.283334,-0.56125 c -0.3638,-0.14472 -1.23392,-0.74541 -1.93361,-1.33486 -1.3401,-1.129 -2.02172,-1.20053 -0.99165,-0.10408 0.53311,0.56747 0.54567,0.62816 0.1062,0.51324 -0.27412,-0.0717 -0.77935,-0.54036 -1.12273,-1.04149 -0.34338,-0.50113 -0.72805,-0.91115 -0.85481,-0.91115 -0.12676,0 -0.23048,-0.13945 -0.23048,-0.30989 0,-0.17045 -0.20836,-0.5445 -0.46302,-0.83123 l -0.46302,-0.52134 0.56449,0.34646 c 0.31047,0.19056 0.76369,0.68367 1.00715,1.09582 0.42554,0.72038 0.9419,1.00283 0.9419,0.51521 0,-0.88042 -2.86835,-3.27045 -4.49862,-3.74842 l -1.71909,-0.50401 1.32292,0.12931 1.32292,0.1293 -1.19063,-0.39554 c -0.65484,-0.21756 -1.60734,-0.4152 -2.11667,-0.43921 -0.8217,-0.0387 -0.84279,-0.0562 -0.18722,-0.15496 0.40635,-0.0612 1.58222,0.0805 2.61304,0.31497 1.03081,0.23445 1.92725,0.37324 1.99208,0.30842 0.0648,-0.0648 -0.27761,-0.2073 -0.76095,-0.3166 l -0.87882,-0.19874 0.79375,-0.22204 c 0.87738,-0.24544 1.57245,-0.0992 1.33725,0.28138 -0.16614,0.26883 1.6492,0.9614 1.88967,0.72093 0.0818,-0.0818 -0.16429,-0.29139 -0.5469,-0.46571 -0.3826,-0.17433 -0.69565,-0.41213 -0.69565,-0.52846 0,-0.11632 -0.49064,-0.35849 -1.09031,-0.53816 -0.84683,-0.25371 -0.98072,-0.36511 -0.59953,-0.49883 0.39188,-0.13746 0.28811,-0.23905 -0.51491,-0.50407 -0.55314,-0.18255 -0.95106,-0.38655 -0.88428,-0.45333 0.0668,-0.0668 0.57538,0.0683 1.13022,0.30008 0.55484,0.23182 1.31185,0.37631 1.68224,0.32109 0.3704,-0.0552 0.51007,-0.0478 0.31039,0.0165 -0.37105,0.11948 -0.14338,0.28379 1.76253,1.27205 1.09667,0.56865 3.49608,2.71018 3.49303,3.1176 -0.001,0.16842 -0.42416,-0.13887 -0.93978,-0.68287 -0.97579,-1.0295 -3.21344,-2.48422 -3.4529,-2.24476 -0.0757,0.0757 0.34635,0.40979 0.93799,0.74232 0.59165,0.33252 1.07573,0.70173 1.07573,0.82045 0,0.31381 -0.37488,0.26432 -0.73642,-0.0972 -0.1722,-0.1722 -0.36579,-0.2604 -0.43019,-0.19599 -0.0644,0.0644 0.57556,0.70673 1.42212,1.4274 1.64474,1.40016 2.56106,2.51115 1.67482,2.03065 -0.26132,-0.14168 -0.83231,-0.63692 -1.26887,-1.10053 -1.04351,-1.10819 -2.98156,-2.44208 -3.36328,-2.31484 -0.16626,0.0554 0.16528,0.389 0.73675,0.7413 1.09335,0.67403 4.21468,3.42927 3.88492,3.42927 -0.10572,0 0.25207,0.23812 0.79509,0.52917 1.25005,0.66998 1.58118,0.66998 0.72464,0 -0.4065,-0.31797 -0.51651,-0.51967 -0.28541,-0.52329 0.72525,-0.0113 1.35328,0.80484 1.0522,1.36742 -0.19463,0.36367 -0.36798,0.43538 -0.59567,0.24642 -0.39616,-0.32878 -1.10296,0.0595 -0.85086,0.46737 0.21737,0.3517 -0.019,0.35105 -0.90776,-0.002 z m -1.35079,-2.0438 c -0.93055,-0.85069 -2.0491,-1.85896 -2.48566,-2.2406 -0.43657,-0.38163 -0.66395,-0.69765 -0.50531,-0.70224 0.15864,-0.005 1.33119,0.94414 2.60567,2.1083 1.27448,1.16417 2.51063,2.11667 2.74699,2.11667 0.30561,0 0.24077,-0.12564 -0.22442,-0.43491 -0.3598,-0.2392 -1.37575,-1.13613 -2.25766,-1.99316 -0.88192,-0.85704 -2.01301,-1.76266 -2.51355,-2.01249 -0.50053,-0.24983 -1.02759,-0.72212 -1.17124,-1.04955 -0.14364,-0.32742 -0.35903,-0.59531 -0.47863,-0.59531 -0.1196,0 -0.1545,0.10186 -0.0776,0.22636 0.0769,0.1245 -0.18392,0.17199 -0.5797,0.10552 -0.65751,-0.11042 -0.62828,-0.0576 0.33874,0.61265 0.58208,0.40342 1.16602,0.92148 1.29762,1.15125 0.48543,0.84747 4.1366,4.25422 4.55943,4.25422 0.26344,0 -0.23523,-0.61471 -1.25472,-1.54671 z m -2.61796,-5.72253 c 0,-0.19143 -1.51493,-0.9329 -1.90509,-0.93243 -0.18912,2.3e-4 0.0729,0.22376 0.58218,0.49674 0.98385,0.52732 1.32291,0.63899 1.32291,0.43569 z m -42.421527,7.62202 c -0.406506,-0.4065 -0.167339,-0.91473 0.352777,-0.74965 0.714872,0.22689 0.729382,-0.7558 0.01852,-1.25372 -0.483086,-0.33837 -0.681262,-1.05769 -0.588827,-2.13729 0.06416,-0.74938 1.470041,-0.49846 1.580906,0.28215 0.101246,0.71289 -0.160602,0.76682 -0.642276,0.13229 -0.319876,-0.42138 -0.352239,-0.39842 -0.359899,0.25528 -0.0053,0.45347 0.186682,0.82271 0.520753,1.0015 0.675743,0.36164 0.759214,2.23635 0.110651,2.48523 -0.537993,0.20645 -0.774115,0.20269 -0.992595,-0.0158 z m 36.865277,-1.42673 c 0,-0.15411 0.11907,-0.20661 0.26459,-0.11667 0.14552,0.0899 0.26458,0.21602 0.26458,0.2802 0,0.0642 -0.11906,0.11667 -0.26458,0.11667 -0.14552,0 -0.26459,-0.12609 -0.26459,-0.2802 z m 11.22436,-1.86954 c -0.0787,-0.12733 -0.01,-0.23151 0.15273,-0.23151 0.1627,0 0.22223,-0.11906 0.13229,-0.26458 -0.0899,-0.14552 -0.0891,-0.26458 0.002,-0.26458 0.33311,0 1.18885,0.55423 1.18885,0.76998 0,0.295 -1.29262,0.28685 -1.47565,-0.009 z m 20.85087,-0.0121 c -0.49192,-0.49191 -0.39013,-0.82724 0.20394,-0.67189 0.3836,0.10031 0.52917,0.008 0.52917,-0.33516 0,-0.26044 -0.21997,-0.53106 -0.48882,-0.60137 -1.06348,-0.2781 -0.95954,-2.8443 0.11521,-2.8443 0.78181,0 0.95918,0.60789 0.85076,2.91592 -0.0829,1.76414 -0.4794,2.26766 -1.21026,1.5368 z m 0.73311,-2.84961 c 0,-0.42797 -0.11907,-0.85172 -0.26459,-0.94165 -0.15745,-0.0973 -0.26458,0.21773 -0.26458,0.77813 0,0.51791 0.11906,0.94166 0.26458,0.94166 0.14552,0 0.26459,-0.35016 0.26459,-0.77814 z m -48.241794,2.45441 c -0.33914,-0.33915 -0.17319,-0.61794 0.36782,-0.61794 0.31734,0 0.47221,-0.11742 0.37096,-0.28125 -0.0956,-0.1547 0.0281,-0.50438 0.27488,-0.77708 0.2468,-0.27271 0.36727,-0.62761 0.26773,-0.78867 -0.0995,-0.16107 -0.0637,-0.43646 0.0797,-0.61198 0.1434,-0.17553 0.22351,-0.64791 0.17804,-1.04973 -0.0564,-0.49834 0.0727,-0.81375 0.40612,-0.99219 0.76642,-0.41018 0.91303,-0.30894 0.38983,0.26919 -0.82614,0.91288 -0.28952,0.81447 0.7885,-0.1446 0.9883,-0.87925 1.60352,-1.17465 1.41783,-0.68079 -0.0485,0.12901 -0.61173,0.63503 -1.25161,1.12448 -0.63988,0.48945 -1.35102,1.18757 -1.5803,1.55137 -0.24991,0.39652 0.0494,0.20472 0.74733,-0.47883 2.42615,-2.37628 2.78701,-2.09658 0.40889,0.31692 -0.94589,0.95996 -1.7198,1.90642 -1.7198,2.10326 0,0.45366 -0.91005,1.29374 -1.14595,1.05784 z m 23.900124,-1.01481 c -0.49365,-0.50933 -0.78133,-0.92605 -0.63929,-0.92605 0.14205,0 0.65133,0.41672 1.13173,0.92605 0.48041,0.50932 0.76809,0.92604 0.63929,0.92604 -0.12879,0 -0.63807,-0.41672 -1.13173,-0.92604 z m -5.80154,-0.24134 c -0.36829,-0.44377 -2.7847,-1.07014 -3.18173,-0.82476 -0.15243,0.0942 -0.27715,0.03 -0.27715,-0.14273 0,-0.21837 0.32361,-0.26227 1.06244,-0.14412 1.33346,0.21322 3.1709,0.9372 3.1709,1.24938 0,0.35791 -0.42597,0.28214 -0.77446,-0.13777 z m 7.11943,-0.55847 c -0.27961,-0.33691 -0.26324,-0.37562 0.0999,-0.23628 0.23886,0.0917 0.43429,0.27298 0.43429,0.40293 0,0.34025 -0.15316,0.29246 -0.53419,-0.16665 z M 65.541956,119.9693 c 0,-2.34234 0.778568,-4.44561 1.55447,-4.19935 0.711067,0.22569 0.733004,0.67195 0.03303,0.67195 -0.388054,0 -0.529166,0.17639 -0.529166,0.66145 0,0.36381 0.119062,0.66146 0.264583,0.66146 0.145521,0 0.264583,0.11907 0.264583,0.26459 0,0.14552 -0.165854,0.26458 -0.368567,0.26458 -0.378357,0 -0.689766,0.5473 -0.689766,1.21226 0,0.20638 0.178594,0.37524 0.396875,0.37524 0.218281,0 0.396875,0.11906 0.396875,0.26458 0,0.14552 -0.297656,0.26459 -0.661458,0.26459 -0.441198,0 -0.661459,-0.14697 -0.661459,-0.44135 z m 47.285224,-1.60066 c -0.84172,-0.51618 -1.46896,-0.99995 -1.39385,-1.07505 0.0751,-0.0751 0.61174,0.19276 1.19254,0.59525 0.60596,0.41993 1.23403,0.66349 1.47374,0.5715 0.24108,-0.0925 0.34939,-0.0497 0.2561,0.10125 -0.0889,0.14386 0.031,0.26156 0.26646,0.26156 0.23546,0 0.35452,0.11906 0.26458,0.26458 -0.23025,0.37255 -0.34451,0.33266 -2.05957,-0.71909 z m -9.23483,0.53835 c 0.191,-0.0764 0.4192,-0.067 0.50712,0.0209 0.0879,0.0879 -0.0684,0.15045 -0.34726,0.13896 -0.30823,-0.0127 -0.37092,-0.0754 -0.15986,-0.15985 z m 0.57878,-0.34843 c -0.53174,-0.17029 -0.55769,-0.21336 -0.13229,-0.21961 0.29104,-0.004 0.76729,0.0945 1.05833,0.21961 0.67422,0.28972 -0.0214,0.28972 -0.92604,0 z m -3.08151,-0.59531 c -0.16771,-0.26684 1.2281,-0.2185 1.89088,0.0655 0.38901,0.16668 0.22518,0.21431 -0.6185,0.17984 -0.63121,-0.0258 -1.20378,-0.13619 -1.27238,-0.24533 z m -13.322664,-0.16721 c 0,-0.14552 0.11906,-0.33817 0.26458,-0.4281 0.14553,-0.0899 0.26459,-0.0445 0.26459,0.10106 0,0.14552 -0.11906,0.33817 -0.26459,0.4281 -0.14552,0.0899 -0.26458,0.0445 -0.26458,-0.10106 z m 15.560814,-0.21197 c 0.19099,-0.0764 0.4192,-0.067 0.50712,0.0209 0.0879,0.0879 -0.0684,0.15046 -0.34727,0.13897 -0.30822,-0.0127 -0.37092,-0.0754 -0.15985,-0.15985 z m 10.43048,-0.22886 c -0.32163,-0.22528 -1.03273,-0.57407 -1.58022,-0.7751 l -0.99544,-0.36551 0.79375,-0.0354 0.79375,-0.0354 -0.61231,-0.24558 c -0.96144,-0.38559 -0.4352,-0.75861 0.57856,-0.4101 0.91755,0.31544 1.84782,0.94771 1.66433,1.1312 -0.0561,0.0561 -0.41615,-0.0175 -0.80014,-0.16345 -0.38398,-0.14599 -0.69815,-0.20266 -0.69815,-0.12593 0,0.0767 0.35719,0.26402 0.79375,0.41621 0.43656,0.15219 0.79375,0.44365 0.79375,0.6477 0,0.46231 -0.0178,0.46137 -0.73163,-0.0386 z m -26.449274,-0.62802 c 0.0298,-0.39536 0.16588,-0.44495 0.7564,-0.27559 0.39605,0.11358 0.78858,0.13802 0.87229,0.0543 0.0837,-0.0837 0.15221,0.0462 0.15221,0.28876 0,0.24254 -0.11906,0.44098 -0.26459,0.44098 -0.14552,0 -0.26458,-0.11612 -0.26458,-0.25804 0,-0.16404 -0.23458,-0.16884 -0.64402,-0.0132 -0.54044,0.20548 -0.63818,0.16732 -0.60771,-0.23724 z m 46.539764,-1.07074 c -0.1794,-0.86856 -0.50571,-1.67967 -0.72513,-1.80246 -0.45441,-0.25431 -0.2273,-1.19781 0.25043,-1.04039 0.31467,0.10369 1.16702,2.81499 1.203,3.82673 0.0417,1.17337 -0.4083,0.56541 -0.7283,-0.98388 z m -12.15636,0.18652 c -1.85093,-1.97022 -2.02761,-5.71157 -0.39183,-8.29718 l 0.69513,-1.09876 1.00414,0.52338 c 0.55227,0.28786 1.14502,0.47643 1.31721,0.41903 0.32037,-0.10679 0.58322,-1.0242 0.26854,-0.9373 -0.0956,0.0264 -0.43125,-0.0949 -0.74589,-0.26966 -0.32849,-0.1824 -1.35093,-0.29083 -2.40129,-0.25464 l -1.82921,0.063 -1.51479,-1.16706 c -1.86828,-1.43938 -2.1904,-1.9685 -1.67618,-2.75329 l 0.37843,-0.57757 h -1.65477 c -2.00527,0 -2.87916,-0.58236 -2.70051,-1.799614 0.0976,-0.664829 0.0457,-0.731594 -0.44182,-0.569103 -3.20731,1.068887 -4.44507,-0.202009 -2.15502,-2.212706 0.9345,-0.820499 0.87358,-1.372761 -0.0943,-0.854775 -0.28448,0.15225 -0.79296,0.269272 -1.12995,0.260048 l -0.6127,-0.01677 0.5909,-0.237656 c 0.33564,-0.134989 0.53229,-0.390406 0.45522,-0.591241 -0.22679,-0.591006 1.13874,-1.688827 1.67775,-1.348829 0.24812,0.156511 0.45113,0.446417 0.45113,0.644236 0,0.215786 0.4763,0.451755 1.19062,0.589855 1.78708,0.345496 1.77569,0.531857 -0.11496,1.880998 -1.54933,1.105575 -2.11726,1.747499 -1.53868,1.739149 0.33547,-0.0048 2.52484,-0.720056 3.56337,-1.164072 1.87669,-0.802354 3.9111,-0.215824 3.9111,1.127586 0,0.796179 -0.45305,0.961392 -2.64212,0.963493 -1.6738,0.0016 -1.99447,0.07352 -2.06977,0.464151 -0.11418,0.59232 1.10581,1.08207 2.1956,0.88139 0.43808,-0.0807 1.31963,-0.21117 1.95901,-0.29002 0.63938,-0.0788 1.25724,-0.2019 1.37301,-0.27345 0.56852,-0.35137 2.3307,0.24183 2.86492,0.96439 l 0.56179,0.75987 -0.5194,0.51941 c -0.55367,0.55367 -1.74281,0.53828 -3.27741,-0.0424 -0.9215,-0.3487 -1.97915,0.38919 -1.23938,0.86467 1.06881,0.68696 2.58581,0.82569 6.73004,0.61548 5.57785,-0.28293 7.0283,-0.0283 7.0283,1.23376 0,0.55241 -0.38633,0.70297 -0.66146,0.25779 -0.20612,-0.3335 -5.33856,-0.35223 -5.54375,-0.0202 -0.0831,0.1344 0.20757,0.49969 0.64585,0.81177 1.83429,1.30613 0.69832,2.31507 -1.65949,1.47391 l -1.00115,-0.35717 -0.5399,1.05829 c -1.23266,2.41622 -1.43205,5.48871 -0.44707,6.88916 0.62094,0.88285 0.50382,0.94097 -0.25928,0.12868 z m 0.13139,-13.32887 c 0.10598,-0.32233 -1.38232,-0.55271 -2.63754,-0.40828 -0.8178,0.0941 -0.96832,0.47293 -0.26458,0.66591 0.82817,0.22711 2.8003,0.052 2.90212,-0.25763 z m -4.22795,-3.32378 c 0.88151,-0.728427 -0.63423,-0.816144 -2.41832,-0.139949 -0.68474,0.259525 -0.71329,0.313143 -0.26458,0.496777 0.59539,0.24366 2.21725,0.02795 2.6829,-0.356828 z m -28.064974,16.8106 c -0.26895,-0.26895 -0.21037,-0.61736 0.10381,-0.61736 0.15411,0 0.2129,0.1089 0.13064,0.24199 -0.0823,0.13309 2e-5,0.30228 0.18283,0.37598 0.1838,0.0741 0.20425,0.14334 0.0457,0.15489 -0.15765,0.0115 -0.36601,-0.0585 -0.46302,-0.1555 z m -1.23472,-0.86194 c 0,-0.12538 0.17859,-0.2965 0.39687,-0.38027 0.21828,-0.0838 0.39688,-0.0497 0.39688,0.0757 0,0.12539 -0.1786,0.29651 -0.39688,0.38027 -0.21828,0.0838 -0.39687,0.0497 -0.39687,-0.0757 z m 20.108334,-0.54917 c -0.34202,-0.22103 -0.33504,-0.25704 0.0505,-0.26053 0.24607,-0.002 0.52099,0.11501 0.61093,0.26053 0.20695,0.33486 -0.14331,0.33486 -0.66146,0 z m 0.56602,-1.86122 c -0.92561,-0.39445 -1.57976,-0.78094 -1.45367,-0.85887 0.18393,-0.11368 3.1651,0.96973 3.48494,1.26649 0.42203,0.39156 -0.67021,0.17238 -2.03127,-0.40762 z m 3.68693,0.57078 c -0.35301,-0.0986 -0.6715,-0.32788 -0.70776,-0.50941 -0.0363,-0.18152 -0.005,-0.20726 0.0691,-0.0572 0.0743,0.15007 0.24972,0.20198 0.38988,0.11535 0.15682,-0.0969 0.13568,-0.30106 -0.055,-0.53081 -0.25819,-0.3111 -0.12805,-0.37332 0.78091,-0.37332 0.70068,0 1.08772,0.11827 1.08231,0.33073 -0.009,0.33947 -0.6297,1.27766 -0.8145,1.2304 -0.0567,-0.0145 -0.39196,-0.10709 -0.74497,-0.20574 z m -2.00399,-0.82622 c -0.0899,-0.14552 -0.0374,-0.26459 0.11668,-0.26459 0.1541,0 0.28019,0.11907 0.28019,0.26459 0,0.14552 -0.0525,0.26458 -0.11667,0.26458 -0.0642,0 -0.19026,-0.11906 -0.2802,-0.26458 z m -1.91823,-0.64469 c -0.57983,-0.26741 -0.8108,-0.67823 -0.3813,-0.67823 0.31109,0 1.26416,0.73223 1.10849,0.85163 -0.0725,0.0556 -0.39977,-0.0224 -0.72719,-0.1734 z m -32.021864,-2.67761 c -0.98812,-0.69211 -0.35077,-3.29229 0.807,-3.29229 0.21067,0 0.20503,0.0933 -0.0192,0.3175 -0.44271,0.44271 -0.39626,1.40442 0.0872,1.80567 0.55606,0.46149 1.65482,-0.0542 1.82665,-0.8574 0.0711,-0.33237 0.17964,-0.84243 0.24119,-1.13348 0.0615,-0.29104 0.12527,-0.11244 0.1416,0.39688 0.0367,1.143 -0.79904,2.57239 -1.70545,2.91701 -0.83365,0.31695 -0.68273,0.3338 -1.37899,-0.15389 z m 18.93821,-3.3452 c 0.24695,-0.24695 0.38806,-0.24695 0.635,0 0.24695,0.24694 0.17639,0.3175 -0.3175,0.3175 -0.49389,0 -0.56444,-0.0706 -0.3175,-0.3175 z m 3.17831,0.13675 c 0.191,-0.0764 0.4192,-0.067 0.50712,0.0209 0.0879,0.0879 -0.0683,0.15046 -0.34726,0.13897 -0.30823,-0.0127 -0.37092,-0.0754 -0.15986,-0.15985 z m -18.96908,-0.91856 c -0.0254,-0.35465 -0.23133,-0.41101 -1.08406,-0.29664 -1.61367,0.21644 -2.38683,-0.40857 -2.38683,-1.92947 0,-1.61146 0.84421,-2.49542 2.38321,-2.49542 h 1.08436 l -0.0454,-3.0698 c -0.0392,-2.648978 0.0236,-3.162199 0.45781,-3.743832 l 0.50324,-0.674032 0.71625,1.825603 c 0.39394,1.004081 0.70724,1.931353 0.69622,2.060604 -0.011,0.129252 0.0894,0.307845 0.22307,0.396875 0.1337,0.08903 0.63316,0.899366 1.10992,1.800749 0.79862,1.509913 1.75226,2.699663 1.95457,2.438493 0.51479,-0.66459 1.23009,-2.998013 0.992,-3.236101 -0.52036,-0.520363 -0.32185,-1.91555 0.38036,-2.673243 0.85518,-0.922763 1.60353,-0.80954 1.52734,0.231084 -0.0667,0.911196 -0.4983,1.451569 -0.48374,0.605669 0.0133,-0.775404 -0.49525,-1.023188 -0.59952,-0.29208 -0.088,0.616848 1.20897,1.853404 1.56626,1.493328 0.11243,-0.113314 0.33622,-1.039463 0.4973,-2.058109 0.49574,-3.135023 2.48377,-6.217708 4.00981,-6.217708 0.52105,0 0.16812,0.792106 -0.49458,1.110042 -0.69866,0.335182 -1.299,1.524599 -1.77675,3.520166 l -0.19002,0.79375 0.7478,-0.695276 c 1.90743,-1.773439 2.81038,-1.570334 2.21568,0.498384 -0.19847,0.690374 -0.40675,1.731475 -0.46286,2.313559 l -0.10201,1.058334 0.69457,-0.793751 0.69457,-0.79375 -0.40102,0.81302 c -0.66,1.338065 -1.98183,1.991356 -2.57735,1.2738 -0.29447,-0.354816 -0.27748,-0.645065 0.19181,-3.277445 l 0.16509,-0.926042 -0.67626,0.623611 c -0.51096,0.471178 -0.75632,1.085573 -1.0038,2.513541 -0.49225,2.840277 -2.13339,4.436997 -3.69915,3.599027 -0.37016,-0.19811 -0.51033,-0.13787 -0.64161,0.27576 -0.0924,0.29109 -0.3885,0.64727 -0.65804,0.79152 -0.56363,0.30165 -1.1836,1.94802 -0.95646,2.53994 0.27219,0.70933 -0.30206,0.13779 -1.05099,-1.04601 -0.58494,-0.92459 -2.60321,-2.55051 -3.16598,-2.55051 -0.0668,0 -0.11772,0.50601 -0.11309,1.12448 0.008,1.04252 0.0365,1.08732 0.39414,0.61462 0.57266,-0.75693 0.67081,-0.41329 0.18342,0.64215 -0.23521,0.50932 -0.50871,1.2237 -0.6078,1.5875 -0.10137,0.37221 -0.19384,0.46999 -0.21145,0.22361 z m -0.89121,-1.13182 c 0.52959,-0.16528 0.59532,-0.35909 0.59532,-1.75546 v -1.56967 h -0.92604 c -1.30192,0 -2.02211,0.78218 -1.9437,2.11101 0.0335,0.56784 0.14002,0.98355 0.2367,0.92379 0.0967,-0.0598 0.40124,0.10857 0.67681,0.37405 0.27556,0.26547 0.56055,0.39704 0.63331,0.29237 0.0728,-0.10467 0.40018,-0.27391 0.7276,-0.37609 z m 3.41984,-2.59752 c -0.0784,-0.1819 -0.514,-1.2237 -0.96806,-2.315106 -0.45406,-1.091406 -0.9304,-2.222501 -1.05852,-2.513543 -0.15875,-0.360584 -0.23844,0.187307 -0.25016,1.719793 l -0.0172,2.248956 0.99147,0.56662 c 1.17242,0.67003 1.49621,0.74294 1.30246,0.29328 z m 5.7759,-0.99456 c 0.24702,-0.399685 -0.0956,-1.249299 -0.57857,-1.434623 -0.57674,-0.221316 -0.82392,0.07795 -0.34127,0.413189 0.29452,0.204573 0.30875,0.302987 0.0585,0.404537 -0.1819,0.07381 -0.33073,0.302869 -0.33073,0.509027 0,0.42718 0.94206,0.51243 1.19209,0.10787 z m 9.39124,4.2357 c 0,-0.29104 0.12609,-0.52916 0.2802,-0.52916 0.15411,0 0.20662,0.11906 0.11668,0.26458 -0.0899,0.14552 0.0519,0.26641 0.31511,0.26864 0.40582,0.003 0.41826,0.0431 0.0818,0.26053 -0.59673,0.38564 -0.79375,0.31996 -0.79375,-0.26459 z m 5.741564,0.0971 c -0.24514,-0.24514 0.10919,-0.89086 0.48884,-0.89086 0.5921,0 0.69413,0.48627 0.1618,0.77116 -0.27598,0.1477 -0.56877,0.20157 -0.65064,0.1197 z m -0.18531,-4.930864 c -0.3638,-0.180419 -0.84005,-0.711869 -1.05833,-1.180999 -0.31775,-0.682903 -0.55658,-0.854106 -1.1979,-0.858691 -2.440394,-0.01744 -2.847284,-2.631927 -0.79009,-5.07676 0.36579,-0.43472 0.66507,-1.078578 0.66507,-1.430795 0,-0.850588 1.59965,-2.589177 3.01078,-3.272294 1.18853,-0.575357 2.54547,-0.724643 2.54547,-0.280043 0,0.145521 -0.26789,0.265746 -0.59531,0.267168 -1.50701,0.0065 -4.69635,2.080376 -4.69635,3.053755 0,0.519704 0.0638,0.500846 1.43391,-0.423828 2.35795,-1.591366 5.96178,-2.162985 5.75432,-0.91272 -0.23659,1.425869 -3.33576,3.307291 -5.44794,3.307291 -1.55167,0 -2.38091,1.923071 -1.46739,3.403011 l 0.54904,0.88947 0.74185,-1.169773 c 1.42479,-2.246657 4.12359,-3.898724 4.97616,-3.04615 0.79158,0.791585 -1.51794,3.256221 -3.89412,4.155648 -0.50932,0.192788 -1.0451,0.458955 -1.19062,0.591481 -0.36529,0.332673 0.81372,1.261731 1.60119,1.261731 0.82451,0 1.05225,0.435674 0.40799,0.780474 -0.63065,0.337518 -0.54261,0.341298 -1.34773,-0.05798 z m 1.53468,-3.383774 c 1.46835,-0.842055 2.12405,-1.804302 1.48309,-2.176453 -0.72312,-0.419862 -3.20032,1.300928 -3.63149,2.522624 -0.24888,0.705166 0.5355,0.578779 2.1484,-0.346171 z m 0.4497,-4.316795 c 1.53367,-0.722136 2.77812,-1.806096 2.77812,-2.419834 0,-0.770776 -2.81092,0.503927 -4.6302,2.099717 l -1.05834,0.928319 0.79375,0.0074 c 0.43657,0.004 1.38907,-0.272956 2.11667,-0.615552 z"
       id="path1" />
  </g>
</svg>
